<?xml version="1.0" encoding="UTF-8"?>
<svg width="200" height="76.93" version="1.1" viewBox="0 0 52.917 20.354" xmlns="http://www.w3.org/2000/svg" xmlns:cc="http://creativecommons.org/ns#" xmlns:dc="http://purl.org/dc/elements/1.1/" xmlns:rdf="http://www.w3.org/1999/02/22-rdf-syntax-ns#">
 <metadata>
  <rdf:RDF>
   <cc:Work rdf:about="">
    <dc:format>image/svg+xml</dc:format>
    <dc:type rdf:resource="http://purl.org/dc/dcmitype/StillImage"/>
   </cc:Work>
  </rdf:RDF>
 </metadata>
 <g>
  <path d="m8.2057.00051676c-2.6882 0-4.869 2.2201-4.869 4.9449 0 1.3578.49542 3.1248 1.3188 4.5935.70325 1.2544 1.6627 2.3205 2.8241 2.605l-1.3426 1.094a.30423.30423 0 00.19224.54002h1.5033c-.015224 1.6074-.49346 2.713-1.1751 3.4163-.71316.73586-1.6624 1.0453-2.6076.9896-1.8904-.11131-3.725-1.6554-3.4065-4.3191a.3042.3042 0 00-.26562-.33796.3042.3042 0 00-.339.26562c-.35536 2.9716 1.7691 4.8688 3.9755 4.9987 1.1032.064958 2.2371-.30494 3.0794-1.1741.80599-.83164 1.331-2.1083 1.3472-3.839h1.5048a.30423.30423 0 00.18965-.5426l-1.3829-1.1012c1.1542-.29898 2.1421-1.35 2.8856-2.5874.88177-1.4675 1.4371-3.2343 1.4371-4.6013 0-2.7249-2.1813-4.9449-4.8695-4.9449zm0 .61495c2.3501 0 4.2545 1.9321 4.2545 4.33 0 1.1943-.52341 2.9092-1.3498 4.2845-.82638 1.3753-1.9381 2.3745-3.0184 2.3745-1.0803 0-2.1293-.99173-2.8996-2.3657-.77028-1.374-1.2397-3.0898-1.2397-4.2933 0-2.3978 1.9028-4.33 4.253-4.33zm26.255 1.4754c-.57917 0-1.3716.31028-2.3771.93121l.67593 1.0211c-.04022.27219-.20932 1.2755-.50695 3.0107s-.44648 2.8839-.44648 3.4453c0 .56138.10453 1.0033.31368 1.3265.21719.31472.55487.47232 1.0134.47232.45851 0 .96964-.2085 1.5327-.62528-.24936-.29771-.37414-.80818-.37414-1.5312 0-.723.17678-1.9818.53072-3.7765.36198-1.7947.54312-2.8837.54312-3.2665 0-.39127-.068407-.65456-.20516-.79065-.13675-.1446-.3699-.21704-.6997-.21704zm4.594 0c-.57917 0-1.3716.31028-2.3771.93121l.67593 1.0211c-.04022.27219-.20932 1.2755-.50695 3.0107-.29763 1.7352-.44648 2.8839-.44648 3.4453 0 .56138.10453 1.0033.31368 1.3265.21719.31472.55538.47232 1.0139.47232.45851 0 .96913-.2085 1.5322-.62528-.24936-.29771-.37414-.79935-.37414-1.5053 0-.18713.003845-.3276.011885-.42116l1.2428-.65061.30179.90589c.26545.81656.56701 1.4034.90485 1.7606.34589.35724.76838.53588 1.2671.53588.6757 0 1.1743-.17423 1.496-.52296-.26545-.1446-.59493-.58314-.98909-1.3146-.39416-.7315-.71595-1.5351-.96532-2.4112.53895-.32322.98936-.69764 1.3513-1.1229.37002-.4338.555-.863.555-1.2883s-.10069-.74881-.30179-.96997c-.2011-.22966-.47037-.34416-.80822-.34416-.50677 0-1.0458.18254-1.617.54829.064353.17862.096635.38712.096635.62528 0 .22966-.056367.43816-.16898.62528-.072398.11058-.13696.20846-.19327.29352-.056308.085058-.14444.19126-.2651.31884-.12066.11908-.21751.21255-.2899.2806-.064352.068047-.18093.17866-.34985.33176-.16088.1446-.27745.25079-.34985.31884l-.76016.71469c.072396-.48483.18897-1.1269.34985-1.9265.16892-.79955.3019-1.4931.39842-2.08.10457-.5869.15658-1.0416.15658-1.3648 0-.33173-.068408-.56567-.20516-.70177-.13675-.1446-.3699-.21704-.6997-.21704zm-23.64.63769c-.70787 0-1.3351.22122-1.8821.66353.30567.22115.5629.51481.77204.88057.45046.79955.67593 2.1734.67593 4.1212l-.012402 2.3477c0 .56138.1691.96073.50695 1.1989.33785.23816.85667.3576 1.5565.3576s1.3396-.1062 1.9187-.31884c.57917-.22115 1.0537-.48937 1.4237-.80409l-.16898-.70176c.032176-.085058.28941-.67187.77205-1.7606.48264-1.0973.84492-2.0076 1.0862-2.7306.24936-.7315.37414-1.3354.37414-1.8118 0-.96116-.40224-1.4418-1.2066-1.4418-.51482 0-1.078.22122-1.6893.66353.088484.22115.13281.4512.13281.68936 0 .60391-.18934 1.4839-.56741 2.6407-.37807 1.1483-.79235 2.229-1.2428 3.2411h-.31368l.036174-2.1435c0-.91863-.039966-1.7139-.12041-2.3859-.096528-.74001-.30175-1.3738-.61547-1.9012-.31372-.53587-.79257-.80409-1.4361-.80409zm-10.02.15296a.3042.3042 0 00-.23513.108c-.68066.80318-.78148 2.0333-.38706 3.6375a.3042.3042 0 00.36794.22324.3042.3042 0 00.22324-.36845c-.3715-1.511-.23919-2.5106.25993-3.0996a.3042.3042 0 00-.035657-.4284.3042.3042 0 00-.19327-.072347zm21.902 1.4423c-1.287 0-2.3488.4292-3.1853 1.2883-.82853.85058-1.2428 1.9606-1.2428 3.33 0 1.0122.30591 1.8246.91726 2.4371.61134.61242 1.4438.91881 2.4975.91881.52286 0 1.0335-.1062 1.5322-.31884.49873-.22115.9453-.52754 1.3395-.91881.39416-.39127.71211-.89343.95343-1.5059.24132-.62093.36174-1.2924.36174-2.0154 0-.7315-.16474-1.289-.49454-1.6717-.32176-.38276-.70812-.57413-1.1586-.57413-.16892 0-.3375.029862-.50643.0894-.008044-.35725-.056727-.67635-.14521-.95705-.28958-.06805-.5791-.1018-.86868-.1018zm21.879 0c-.70787 0-1.3471.084648-1.9182.25476-.56308.16161-1.0381.45086-1.4242.86765-.37807.41679-.56689.93167-.56689 1.5441 0 .77403.27363 1.3736.82062 1.7989.54699.42529 1.4314.71454 2.6541.86765-.13675.62093-.53848.93121-1.2061.93121-.38611 0-.78451-.1062-1.1948-.31884-.4022-.21265-.70376-.46762-.90485-.76533-.39416.46782-.59118.93571-.59118 1.4035 0 .92714 1.0174 1.3906 3.0525 1.3906.71592 0 1.4438-.16592 2.1838-.49764.37807-.17862.69166-.43801.94103-.77825.24936-.34874.37414-.75691.37414-1.2247 0-.74001-.27747-1.3102-.83251-1.71-.55504-.39977-1.5122-.70564-2.8717-.91829.13675-.32322.2938-.57041.47077-.74052.17697-.17862.41396-.31468.71158-.40824.14479.34023.34617.59962.60358.77825.26545.17862.55496.2682.86868.2682.32176 0 .61512-.11061.88057-.33176.2735-.22115.41031-.53585.41031-.94413 0-.40828-.23315-.75284-.6997-1.0335-.45851-.2892-1.0457-.43357-1.7616-.43357zm-21.155 1.2247c-.24132.17862-.4181.41698-.53072.71469-.10457.2977-.1571.56541-.1571.80357 0 .88461.32616 1.5394.97772 1.9647-.33785 1.1313-.91739 1.6971-1.7379 1.6971-.37002 0-.67542-.18305-.91674-.5488-.23328-.37426-.34985-.86759-.34985-1.48 0-.61242.17294-1.2075.51883-1.7859.4022-.67196 1.1339-1.1271 2.1957-1.3653zm-19.9 6.859.95653.76119h-1.8914l.93483-.76119zm25.465.71107c-.39188 0-.68812.173-.88832.51883-.2002.34583-.30024.82158-.30024 1.4268l-.40876.10904c-.068166.018187-.11113.045746-.12816.082166-.017027.0364-.025321.11588-.025321.23874h.56224v3.5765c0 .23662-.042448.41395-.12764.53227-.085188.12286-.19209.18448-.31988.18448-.10223 0-.18519-.041082-.24908-.12299-.068155-.077359-.10232-.18657-.10232-.32763 0-.095561.013197-.17504.038757-.23874.025546-.059151.055313-.11375.0894-.16381.034093-.045527.05116-.075257.05116-.088884 0-.050053-.040506-.07493-.12144-.07493-.1789 0-.32825.058936-.44752.17725-.11927.11831-.1788.26427-.1788.43718 0 .21387.074674.38202.22376.50488.14908.12741.33842.1912.56844.1912.3791 0 .6646-.13894.85628-.41651.19594-.27303.29404-.64607.29404-1.1193v-3.051h.74724c.046854-.036406.082961-.093178.10852-.17053.025553-.077359.038757-.16386.038757-.25942h-.89452v-.51883c0-.35038.042449-.6234.12764-.81907.08945-.20022.22806-.30024.41548-.30024.13205 0 .23597.045414.31264.13643.076671.086457.11524.20268.11524.3483 0 .11376-.010746.20676-.032039.27957-.021294.07281-.046662.13443-.076481.18448-.029827.05008-.044959.081975-.044959.095602 0 .050053.04051.07493.12144.07493.18316 0 .33251-.061622.44752-.18448.11926-.12741.1788-.28854.1788-.48421 0-.22297-.0893-.40515-.2682-.54622-.1789-.14106-.40681-.21187-.68368-.21187zm-20.681.34158c-.30242 0-.61524.031895-.93896.095602-.32372.059158-.58774.12728-.7922.20464l.076482.2527h.37052c.05112 0 .087227.013518.10852.040825.021293.022754.032039.063836.032039.12299v3.4468c0 .17292-.034168.3005-.10232.38241-.068151.077381-.17014.13632-.30644.17725l-.14676.040825.076481.23203h2.0061c.46003 0 .84803-.10653 1.1632-.32039.31946-.21387.5576-.50526.7152-.87385.16186-.36859.24288-.78487.24288-1.249 0-.75992-.19568-1.3746-.58756-1.8433-.38762-.47325-1.027-.70952-1.9172-.70952zm.11524.38189c.37484 0 .68765.10054.93896.30076.25557.20022.44543.46405.56896.79168.12353.32763.185.6823.185 1.0645 0 1.4061-.54266 2.1094-1.6288 2.1094-.20872 0-.37709-.059457-.50488-.17777-.12352-.12286-.18552-.34561-.18552-.66869v-3.1058c0-.20932.20889-.31419.62632-.31419zm29.154.30076c-.12351 0-.20258.008685-.23668.026872-.02984.0182-.050802.064132-.063562.13694-.042594.22752-.11287.41404-.21084.55966-.093708.14106-.2538.24325-.47956.30696-.068165.018187-.11061.045746-.12764.082166-.017026.0364-.025321.11588-.025321.23874h.56224v2.4024c0 .20477.046852.36641.14056.48472.097971.11376.23412.17053.40876.17053.13631 0 .28126-.045415.4346-.13643.15334-.095559.2851-.22046.39584-.37517l-.12144-.17777c-.16186.14561-.3063.21859-.43408.21859-.08521 0-.1472-.02973-.18552-.088884s-.057361-.15917-.057361-.30024v-2.1978h.68368c.046854-.036406.082961-.093178.10852-.17053.025553-.077359.03824-.16386.03824-.25942h-.83044v-.92139zm8.4992.82579c-.13204 0-.27894.038401-.4408.11576-.1576.077359-.29181.17521-.40256.29352l.05736.17777h.28112c.046867 0 .079092.011359.096118.034106.021294.022749.03204.061149.03204.11576v1.5157c0 .35948.084897.63901.25528.83922.17038.19567.40709.29352.70952.29352.23427 0 .44898-.056772.64492-.17053.19594-.11831.34335-.27779.44132-.47801v1.0103c0 .39134-.061994.70327-.18552.93534-.12353.23207-.31727.3483-.58136.3483-.17038 0-.30653-.061622-.40876-.18448-.097971-.11831-.14728-.2686-.14728-.45062 0-.14561.021485-.26618.064078-.36174.046858-.09556.10005-.17721.15968-.24546.059633-.068271.0894-.11152.0894-.12971 0-.018234-.010746-.036591-.032039-.054777-.01704-.013634-.046807-.020671-.089401-.020671-.25131 0-.44945.079998-.59428.23926-.14482.16382-.21704.35952-.21704.58704 0 .16837.04051.32516.12144.47077.080934.15016.2044.27072.37052.36174.16612.09556.36621.14314.60048.14314.43873 0 .78376-.15246 1.0351-.45734.25557-.30033.38344-.73014.38344-1.2898v-3.638l-.77928.088884-.076998.10232.076998.10904c.10648.15017.1743.31614.20412.49816.02982.18202.044959.45988.044959.83302 0 .40499-.08102.72342-.24288.9555-.1576.22752-.37917.34106-.66456.34106-.19594 0-.34477-.070293-.447-.21136-.10223-.14106-.15348-.34812-.15348-.62115v-1.8774c0-.063724-.019048-.11565-.057361-.15658-.038337-.040933-.087645-.061495-.14728-.061495zm-32.863.006718c-.1789 0-.34534.093516-.49868.28009-.14908.18656-.25935.43203-.33176.73691h-.038757v-.73019c0-.06373-.019008-.11616-.057361-.1571-.038338-.040933-.087128-.061495-.14676-.061495-.11926 0-.25982.038913-.42168.11627-.1576.077355-.29816.17521-.42168.29352l.057361.17725h.28112c.046867 0 .078575.01136.095602.034107.021293.022753.032039.061665.032039.11627v1.9177c0 .17292-.019047.29616-.057361.36897-.034078.06826-.10435.11584-.21084.14314l-.13436.034106.07028.21136h1.1183l.076481-.10232-.076481-.10904c-.076672-.11376-.12986-.23216-.15968-.35502-.02982-.12741-.044959-.29339-.044959-.49816 0-.44139.038567-.80524.11524-1.0919.076672-.29123.16843-.50097.27492-.62838.11075-.13196.21713-.19792.31936-.19792.059614 0 .10841.025394.14676.075448.042599.045503.064078.10878.064078.19069 0 .072805-.01268.13928-.03824.19844-.02128.059154-.051047.11593-.0894.17053-.034087.054584-.05116.088646-.05116.10232 0 .050053.040506.074931.12144.074931.1789 0 .32773-.058941.447-.17725.11926-.11831.1788-.26427.1788-.43718 0-.21387-.059535-.38202-.1788-.50488-.11501-.12741-.2619-.1912-.4408-.1912zm2.5668 0c-.33224 0-.62408.077313-.8754.23203-.24705.15017-.43885.36424-.57516.64182-.1363.27303-.20412.59146-.20412.9555 0 .34583.059534.65074.1788.91467.12353.26393.2963.46882.5178.61443.2215.14562.47917.21807.77308.21807.25131 0 .48556-.051918.7028-.15658.21724-.10466.40464-.25495.56224-.45062.017027-.018187.025322-.038748.025322-.061495 0-.045528-.019048-.088774-.057361-.12971-.038323-.045506-.074434-.068213-.10852-.068213-.021287 0-.040851.009202-.057878.027389-.24705.25938-.55792.38912-.93276.38912-.30669 0-.54094-.11406-.7028-.34158-.16186-.23207-.24288-.5505-.24288-.9555 0-.47779.076616-.84433.22996-1.0992.15334-.25938.36663-.38861.63924-.38861.19168 0 .34051.065956.447.19792.10649.12741.15968.27987.15968.45734 0 .20932-.072219.39098-.21704.5457-.14056.15471-.33871.23203-.59428.23203-.11501 0-.20871-.013524-.28112-.040824-.072392-.03186-.11484-.047543-.12764-.047543-.025567 0-.048987.015683-.07028.047543-.017027.031836-.025838.065899-.025838.10232 0 .10466.083474.18414.2496.23874.16612.054607.3169.082166.4532.082166.25557 0 .4752-.054603.65836-.16382.18316-.11376.32177-.2592.41548-.43667.097966-.17747.14676-.36182.14676-.55294 0-.17746-.04051-.34128-.12144-.49144-.08093-.15472-.2044-.27796-.37052-.36897-.16186-.09556-.36001-.14314-.59428-.14314zm3.3848 0c-.3365 0-.63028.077313-.8816.23203-.24705.15471-.43886.37798-.57516.66921-.13205.28668-.19792.62565-.19792 1.017 0 .35493.050734.65716.15296.90744.10649.25027.24704.43948.42168.56689.17464.12286.3645.18397.56896.18397.21298 0 .41112-.054604.59428-.16381.18316-.10921.36176-.29573.5364-.55966 0 .25482.038566.43917.11524.55294.076672.11376.20208.17053.37672.17053.10649 0 .22362-.038396.3514-.11576.12779-.077355.24737-.18223.35812-.31419l-.12144-.17725c-.10649.081904-.21287.12299-.31936.12299-.12779 0-.19172-.070811-.19172-.21187v-2.2319c0-.054586.006321-.10001.019121-.13643.01278-.040956.033742-.084201.063562-.12971l.076997-.12299-.070279-.088883c-.12779-.0091-.31959-.036143-.57516-.081649-.30242-.059153-.53668-.088884-.7028-.088884zm4.3816 0c-.23428 0-.4583.095685-.67128.2868-.21298.18656-.3745.42986-.48524.73019v-.73019c0-.06373-.019047-.11616-.05736-.1571-.038338-.040933-.087645-.061495-.14728-.061495-.11926 0-.25982.038913-.42168.11627-.15761.077355-.29816.17521-.42168.29352l.057361.17725h.28112c.046867 0 .079092.01136.096118.034107.021294.022753.03204.061665.03204.11627v1.9177c0 .17292-.019525.29616-.057878.36897-.034078.06826-.10435.11584-.21084.14314l-.13384.034106.07028.21136h1.1178l.076998-.10232-.076998-.10904c-.07666-.11831-.12985-.24104-.15968-.36845-.02982-.12741-.044442-.29824-.044442-.51211 0-.36404.03805-.68732.11472-.96945.08093-.28213.18977-.50054.32608-.65526.14056-.15472.3026-.23203.48576-.23203.3152 0 .47284.23246.47284.6966v2.2521h.77928l.076481-.10232c-.11503-.14561-.19165-.28672-.22996-.42323-.034093-.14106-.05116-.32975-.05116-.56637v-.081649c.004259-.35039.047228-.66015.12816-.92862.080933-.26848.18926-.47554.32556-.62115.13631-.15016.29394-.22531.47284-.22531.3152 0 .47284.23246.47284.6966v1.6242c0 .25482.038567.43917.11524.55294.076672.11376.20208.17053.37672.17053.11074 0 .22982-.038396.3576-.11576.12778-.077355.24737-.18223.35812-.31419l-.12144-.17725c-.11501.095556-.22139.14314-.31936.14314-.12779 0-.19172-.077313-.19172-.23203v-1.6516c0-.42774-.066393-.73968-.19844-.93534-.12779-.19567-.33421-.29352-.6196-.29352-.23428 0-.45779.095685-.67076.2868-.21298.18656-.37501.42986-.48576.73019-.021298-.35038-.097915-.6072-.22996-.77101-.13204-.16382-.32773-.24598-.58756-.24598zm7.6383 0c-.3365 0-.63029.077313-.8816.23203-.24705.15471-.43886.37798-.57516.66921-.13205.28668-.19844.62565-.19844 1.017 0 .35493.05125.65716.15348.90744.10649.25027.24704.43948.42168.56689.17464.12286.3645.18397.56896.18397.21297 0 .41112-.054604.59428-.16381.18316-.10921.36176-.29573.5364-.55966 0 .25482.038566.43917.11524.55294.076672.11376.20208.17053.37672.17053.10649 0 .22361-.038396.3514-.11576.12778-.077355.24737-.18223.35812-.31419l-.12144-.17725c-.10649.081904-.21339.12299-.31988.12299-.12779 0-.1912-.070811-.1912-.21187v-2.2319c0-.054586.006361-.10001.019121-.13643.012773-.040956.033735-.084201.063562-.12971l.076998-.12299-.07028-.088883c-.12779-.0091-.31959-.036143-.57516-.081649-.30242-.059153-.53668-.088884-.7028-.088884zm3.7553 0c-.31094 0-.58376.075144-.81804.22531-.23002.14561-.40913.35484-.53692.62787-.12778.26848-.1912.58258-.1912.94206 0 .34128.065877.64837.19792.92139.13204.26848.31505.47987.54932.63459.23427.15016.49829.22531.7922.22531.22149 0 .43038-.047584.62632-.14314.2002-.10011.37492-.24121.524-.42323.0128-.013633.019121-.034194.019121-.061494 0-.045489-.019048-.088735-.057361-.12971-.034065-.040934-.068233-.061495-.10232-.061495-.025553 0-.04456.006997-.05736.02067-.25557.22752-.53719.34106-.84388.34106-.30243 0-.54302-.12273-.72192-.36845-.17464-.25027-.262-.58708-.262-1.0103 0-.41409.074678-.74873.22376-1.0036.14908-.25483.34528-.38189.58808-.38189.18316 0 .3276.054603.43408.16382.11075.10466.1664.24793.1664.42995 0 .11376-.010746.20676-.032039.27957-.021287.072809-.046655.13443-.076481.18448-.029827.050033-.044959.081928-.044959.095601 0 .05006.04051.074931.12144.074931.18316 0 .33251-.061105.44752-.18397.11926-.12742.1788-.28906.1788-.48472 0-.26847-.1069-.48689-.31988-.65526-.20872-.17292-.47662-.25942-.8046-.25942zm5.4529 0c-.3152 0-.5919.072975-.83044.21859-.23427.14561-.41533.35267-.54312.62115-.12352.26848-.185.58474-.185.94878 0 .35948.061478.67575.185.94878.12779.26848.30885.47554.54312.62115.23854.14562.51524.21807.83044.21807.31521 0 .58997-.072458.82424-.21807.23427-.14561.41533-.35267.54312-.62115.12779-.27303.19172-.58929.19172-.94878 0-.36404-.063934-.6803-.19172-.94878-.12779-.26848-.30885-.47554-.54312-.62115-.23427-.14562-.50903-.21859-.82424-.21859zm4.024 0c-.1789 0-.34534.093516-.49868.28009-.14908.18656-.25987.43203-.33228.73691h-.038241v-.73019c0-.06373-.019047-.11616-.057361-.1571-.038337-.040933-.087127-.061495-.14676-.061495-.11927 0-.25982.038913-.42168.11627-.1576.077355-.29816.17521-.42168.29352l.057361.17725h.28112c.046867 0 .078575.01136.095602.034107.021293.022753.032039.061665.032039.11627v1.9177c0 .17292-.019047.29616-.057361.36897-.034078.06826-.10435.11584-.21084.14314l-.13436.034106.07028.21136h1.1183l.076481-.10232-.076481-.10904c-.076661-.11376-.12985-.23216-.15968-.35502-.029827-.12741-.044959-.29339-.044959-.49816 0-.44139.038567-.80524.11524-1.0919.076672-.29123.16791-.50097.2744-.62838.11075-.13196.21765-.19792.31988-.19792.059657 0 .10845.025394.14676.075448.042593.045503.064078.10878.064078.19069 0 .072805-.013204.13928-.038757.19844-.02132.059154-.051087.11593-.0894.17053-.034087.054584-.05116.088646-.05116.10232 0 .050053.040511.074931.12144.074931.1789 0 .32825-.058941.44752-.17725.11927-.11831.1788-.26427.1788-.43718 0-.21387-.05953-.38202-.1788-.50488-.115-.12741-.2619-.1912-.4408-.1912zm-4.0049.35502c.20872 0 .37709.077313.50488.23203.13205.15472.22575.3434.28112.56637.055373.22297.083199.44139.083199.65526-1e-6.27758-.038567.52356-.11524.73742-.076671.20932-.185.37313-.32556.49144-.1363.11376-.292.17053-.46664.17053-.26835 0-.48112-.12758-.63872-.3824-.1576-.25483-.23668-.59814-.23668-1.0304 0-.28213.038567-.53244.11524-.75086.076672-.21842.18306-.38657.31936-.50488.14056-.12286.30014-.18448.47904-.18448zm-21.282.020671c.00958-.000244.019222 0 .028939 0 .2215 0 .42986.070293.6258.21136v1.8428c-.11501.20932-.24676.36663-.39584.47129-.14908.10011-.30918.14986-.47956.14986-.20872 0-.38292-.10219-.52348-.30696-.13631-.20477-.20464-.5232-.20464-.9555 0-.44594.084901-.79194.25528-1.0377.16506-.24245.39652-.36759.6935-.37517zm12.019 0c.00958-.000244.019222 0 .028939 0 .22149 0 .43038.070293.62632.21136v1.8428c-.11501.20932-.24676.36663-.39584.47129-.14908.10011-.30918.14986-.47956.14986-.20872 0-.38343-.10219-.524-.30696-.13631-.20477-.20412-.5232-.20412-.9555 0-.44594.084902-.79194.25528-1.0377.16506-.24245.39601-.36759.69298-.37517z" style="color-rendering:auto;color:#000000;dominant-baseline:auto;fill:#d900ff;font-feature-settings:normal;font-variant-alternates:normal;font-variant-caps:normal;font-variant-east-asian:normal;font-variant-ligatures:normal;font-variant-numeric:normal;font-variant-position:normal;font-variation-settings:normal;image-rendering:auto;inline-size:0;isolation:auto;mix-blend-mode:normal;shape-margin:0;shape-padding:0;shape-rendering:auto;solid-color:#000000;stop-color:#000000;text-decoration-color:#000000;text-decoration-line:none;text-decoration-style:solid;text-indent:0;text-orientation:mixed;text-transform:none;white-space:normal"/>
 </g>
</svg>
