<?xml version="1.0" encoding="UTF-8" standalone="no"?>
<!-- Created with Inkscape (http://www.inkscape.org/) -->

<svg
   width="1000"
   height="1015.297"
   viewBox="0 0 264.58333 268.63066"
   version="1.1"
   id="svg374"
   sodipodi:docname="logo-v1.svg"
   inkscape:version="1.2.1 (9c6d41e410, 2022-07-14)"
   xmlns:inkscape="http://www.inkscape.org/namespaces/inkscape"
   xmlns:sodipodi="http://sodipodi.sourceforge.net/DTD/sodipodi-0.dtd"
   xmlns="http://www.w3.org/2000/svg"
   xmlns:svg="http://www.w3.org/2000/svg">
  <sodipodi:namedview
     id="namedview376"
     pagecolor="#ffffff"
     bordercolor="#000000"
     borderopacity="0.25"
     inkscape:showpageshadow="2"
     inkscape:pageopacity="0.0"
     inkscape:pagecheckerboard="0"
     inkscape:deskcolor="#d1d1d1"
     inkscape:document-units="px"
     showgrid="false"
     inkscape:zoom="0.33701158"
     inkscape:cx="584.54965"
     inkscape:cy="538.55717"
     inkscape:window-width="1350"
     inkscape:window-height="706"
     inkscape:window-x="0"
     inkscape:window-y="0"
     inkscape:window-maximized="0"
     inkscape:current-layer="layer1" />
  <defs
     id="defs371">
    <inkscape:path-effect
       effect="taper_stroke"
       id="path-effect2014"
       is_visible="true"
       lpeversion="1"
       stroke_width="6.7576299"
       attach_start="1.7176539"
       end_offset="1.0149667"
       start_smoothing="0.5"
       end_smoothing="0.5"
       jointype="extrapolated"
       start_shape="center"
       end_shape="center"
       miter_limit="100" />
    <inkscape:path-effect
       effect="taper_stroke"
       id="path-effect2016"
       is_visible="true"
       lpeversion="1"
       stroke_width="7.9375"
       attach_start="0.94488861"
       end_offset="1.7121135"
       start_smoothing="0.5"
       end_smoothing="0.5"
       jointype="extrapolated"
       start_shape="center"
       end_shape="center"
       miter_limit="100" />
    <inkscape:path-effect
       effect="taper_stroke"
       id="path-effect2012"
       is_visible="true"
       lpeversion="1"
       stroke_width="7.9375"
       attach_start="1.8970702"
       end_offset="1.4409246"
       start_smoothing="0.5"
       end_smoothing="0.5"
       jointype="extrapolated"
       start_shape="center"
       end_shape="center"
       miter_limit="100" />
  </defs>
  <g
     inkscape:label="Layer 1"
     inkscape:groupmode="layer"
     id="layer1">
    <g
       id="g2230"
       transform="matrix(1.1811449,0,0,1.1811449,-21.051486,1220.5976)">
      <path
         id="path351-4-1-7"
         style="fill:#d900ff;fill-opacity:1;fill-rule:nonzero;stroke:none;stroke-width:1.51375;stroke-linecap:round;stroke-linejoin:round;stroke-dasharray:none"
         d="m 236.55207,-893.71014 c 9.32632,-17.6985 5.35404,-38.07641 -4.62121,-50.6755 -7.76006,-9.7349 -17.78303,-14.07487 -24.69455,-15.79205 -7.0546,-1.75272 -11.32248,-1.27577 -11.32248,-1.27577 0,0 4.29843,0.18283 10.87535,2.70253 6.49331,2.48766 15.31833,7.63927 21.54058,17.00217 7.99234,11.93439 10.18735,30.05341 2.25357,44.87008 -2.70133,5.08865 -6.50461,9.69256 -11.35641,13.4294 -0.27252,0.2099 -0.54722,0.41704 -0.82403,0.6214 -6.45783,4.79835 -13.91647,8.14534 -20.93591,10.66981 -7.19464,2.56485 -13.23677,3.93937 -18.07992,4.72027 -4.65691,0.75088 -7.52791,0.89393 -7.52791,0.89393 0,0 2.80735,0.59277 7.62286,0.81831 4.92409,0.23064 11.53676,-0.004 19.32866,-1.68641 7.65034,-1.62927 16.10429,-4.56139 23.58218,-9.96695 0.32236,-0.23438 0.64158,-0.47326 0.95752,-0.7166 5.63124,-4.33716 10.05656,-9.68993 13.2017,-15.61462 z"
         sodipodi:nodetypes="cssc" />
      <path
         id="path351-2-0-8"
         style="fill:#e75bff;fill-opacity:1;fill-rule:nonzero;stroke:none;stroke-width:1.77805;stroke-linecap:round;stroke-linejoin:round;stroke-dasharray:none"
         d="m 20.596729,-948.41656 c 3.296144,10.17992 9.338873,18.24077 14.758283,23.84103 5.31353,5.49085 9.509728,8.28972 9.509728,8.28972 0,0 -2.771573,-4.21856 -6.313386,-10.66153 -3.737518,-6.79898 -7.471183,-14.69207 -10.396987,-23.89533 -0.192744,-0.60042 -0.372345,-1.19536 -0.538593,-1.78427 -2.115411,-7.4935 -2.364819,-15.07334 -1.031722,-22.22753 3.518882,-19.25914 18.555243,-34.24053 34.475984,-39.46803 12.505502,-4.1547 24.375292,-2.5543 32.17688,-0.1717 7.900114,2.4126 12.010804,5.3419 12.010804,5.3419 0,0 -3.60415,-3.5207 -11.391923,-6.9919 -7.631575,-3.4015 -20.024966,-6.6223 -34.223713,-3.2365 -18.224885,4.4087 -36.515298,20.18164 -40.851217,43.0722 -1.553871,8.33899 -1.26021,17.13746 1.195961,25.83804 0.192558,0.6821 0.399383,1.36696 0.619901,2.0539 z"
         sodipodi:nodetypes="cssc" />
      <path
         id="path1175-9-9"
         style="fill:#d900ff;fill-opacity:1;fill-rule:nonzero;stroke:none;stroke-width:1.77805;stroke-linecap:round;stroke-linejoin:round;stroke-dasharray:none"
         d="m 158.91504,-1032.1717 c -13.27795,-2.8813 -27.03481,-0.5795 -38.29036,5.6217 -12.69964,7.0186 -21.076746,18.2705 -25.062413,29.42846 -4.637788,13.10124 -4.580584,25.57425 -3.94727,33.49271 0.657728,8.22372 1.844919,12.82867 1.844919,12.82867 0,0 -0.564475,-4.72986 -0.317544,-12.86707 0.237843,-7.83773 1.428814,-19.9082 6.768761,-31.71195 4.432927,-9.85502 12.674957,-19.34832 23.990237,-24.92132 10.00925,-4.949 22.02829,-6.592 33.32281,-4.1159 2.63006,0.5734 5.25051,1.3728 7.83756,2.4093 14.03648,5.6236 24.03077,17.0182 28.3585,30.33863 3.58857,11.00655 3.19206,23.08278 -0.65108,33.49237 -4.26747,11.68286 -12.04783,21.63683 -19.26705,29.24105 -7.91597,8.27304 -14.92703,13.42243 -20.90377,16.84336 -5.68365,3.25319 -9.34675,4.4434 -9.34675,4.4434 0,0 3.78856,-0.65007 9.94172,-3.23761 6.38271,-2.68407 14.37979,-7.20739 23.24681,-14.97415 8.19563,-7.12323 17.2157,-16.97084 22.74798,-29.74433 5.022,-11.7151 5.971,-25.58192 1.78121,-38.51674 -5.03737,-15.50458 -16.65804,-28.72468 -32.95556,-35.25418 -2.9977,-1.201 -6.03982,-2.1295 -9.09871,-2.7964 z"
         sodipodi:nodetypes="csssc" />
      <g
         id="path1169-5-5">
        <path
           id="path2007"
           style="color:#000000;fill:#009aff;fill-opacity:1;stroke-width:2.64583;stroke-linecap:round;stroke-linejoin:round"
           d="m 103.33323,-961.15527 a 1.3230489,1.3230489 0 0 0 -0.60669,0.22944 l -68.255776,47.72835 a 1.3230489,1.3230489 0 0 0 -0.218592,1.97663 l 1.921847,2.10168 c 2.605074,2.8496 5.645193,4.12546 7.111194,4.67775 -3.040452,6.49436 -10.51817,22.71089 -17.881079,42.75759 l -0.503845,1.37305 a 1.3230489,1.3230489 0 0 0 0.234611,1.31671 l 41.84189,49.03525 a 1.3230489,1.3230489 0 0 0 0.947229,0.4625 l 76.644411,3.52537 a 1.3230489,1.3230489 0 0 0 1.27538,-0.7984 l 0.68368,-1.58802 c 9.95951,-23.11984 17.34534,-44.88483 19.00969,-49.8476 l 14.26941,16.0507 a 1.3230489,1.3230489 0 0 0 2.27532,-1.18959 l -8.13284,-33.76331 a 1.3230489,1.3230489 0 0 0 -0.26923,-0.53744 l -69.17976,-83.04299 a 1.3230489,1.3230489 0 0 0 -1.16685,-0.46767 z m -0.98754,9.82524 64.51389,77.4454 1.87069,7.7618 -42.78705,-48.12936 c -4.57998,-8.00878 -11.08202,-14.62857 -11.08202,-14.62857 a 1.3230489,1.3230489 0 0 0 -2.22828,1.24592 c 0,0 2.30272,9.33068 6.8926,17.53536 l 0.13281,0.23823 a 1.3230489,1.3230489 0 0 0 0.16588,0.23255 l 43.49605,48.93138 c -1.70838,3.19059 -12.61267,23.72596 -22.73815,46.88861 L 71.013752,-817.008 33.331815,-861.1681 c 8.63104,-23.8957 14.939657,-47.86891 14.939657,-47.86891 a 1.3230489,1.3230489 0 0 0 -2.472718,-0.90847 c 0,0 -0.593225,1.30371 -0.642338,1.40663 -0.262921,-0.66487 -0.593827,-1.36322 -0.980818,-2.11563 z m 23.72827,37.33777 h 5.1e-4 l 0.0233,0.0119 -0.006,0.0134 c -0.009,-0.0124 -0.009,-0.0133 -0.0176,-0.0253 z m 0.0284,0.016 c 10e-4,0.002 0.0327,0.0574 0.0636,0.1111 -0.0185,-0.0255 -0.0264,-0.0382 -0.0527,-0.0744 a 1.3230489,1.3230489 0 0 0 -0.0109,-0.0367 z m -10.05934,11.49955 a 1.3230489,1.3230489 0 0 0 -0.31626,0.0315 h -5.1e-4 a 1.3230489,1.3230489 0 0 0 -0.93741,0.79065 c 0,0 -7.64811,18.84652 -12.88655,38.39662 l -0.0274,0.10749 -3.531053,-0.0393 c -24.543886,-0.26403 -49.070389,1.98076 -49.070389,1.98076 a 1.3230489,1.3230489 0 0 0 -0.02739,2.63085 c 0,0 24.469682,2.77092 49.013545,3.03495 l 3.639057,0.0393 2.40812,2.87889 c 14.44527,17.26353 30.78107,32.87913 30.78107,32.87913 a 1.3230489,1.3230489 0 0 0 2.01744,-1.68775 c 0,0 -12.49003,-18.83606 -26.9353,-36.09961 l -1.42782,-1.70532 0.54673,-2.03863 c 5.23845,-19.55012 8.03724,-39.69732 8.03724,-39.69732 a 1.3230489,1.3230489 0 0 0 -1.28313,-1.50224 z" />
      </g>
    </g>
  </g>
</svg>
