<?xml version="1.0" encoding="UTF-8" standalone="no"?>
<svg
   xmlns:dc="http://purl.org/dc/elements/1.1/"
   xmlns:cc="http://creativecommons.org/ns#"
   xmlns:rdf="http://www.w3.org/1999/02/22-rdf-syntax-ns#"
   xmlns:svg="http://www.w3.org/2000/svg"
   xmlns="http://www.w3.org/2000/svg"
   xmlns:sodipodi="http://sodipodi.sourceforge.net/DTD/sodipodi-0.dtd"
   xmlns:inkscape="http://www.inkscape.org/namespaces/inkscape"
   width="1200"
   height="1200"
   viewBox="0 0 317.49999 317.50001"
   version="1.1"
   id="svg983"
   inkscape:version="1.0.1 (3bc2e813f5, 2020-09-07)"
   sodipodi:docname="logo final.svg">
  <defs
     id="defs977" />
  <sodipodi:namedview
     id="base"
     pagecolor="#ffffff"
     bordercolor="#666666"
     borderopacity="1.0"
     inkscape:pageopacity="0.0"
     inkscape:pageshadow="2"
     inkscape:zoom="0.31685783"
     inkscape:cx="400"
     inkscape:cy="724.1849"
     inkscape:document-units="px"
     inkscape:current-layer="layer1"
     inkscape:document-rotation="0"
     showgrid="false"
     inkscape:window-width="1366"
     inkscape:window-height="705"
     inkscape:window-x="-8"
     inkscape:window-y="-8"
     inkscape:window-maximized="1"
     units="px" />
  <metadata
     id="metadata980">
    <rdf:RDF>
      <cc:Work
         rdf:about="">
        <dc:format>image/svg+xml</dc:format>
        <dc:type
           rdf:resource="http://purl.org/dc/dcmitype/StillImage" />
        <dc:title></dc:title>
      </cc:Work>
    </rdf:RDF>
  </metadata>
  <g
     inkscape:label="Layer 1"
     inkscape:groupmode="layer"
     id="layer1">
    <g
       id="g975"
       transform="matrix(1.2566883,0,0,1.2566884,-1993.5912,529.02482)"
       style="fill:#10b981;fill-opacity:1;stroke:#10b981;stroke-opacity:1">
      <g
         id="g833"
         style="opacity:1">
        <path
           id="path835"
           style="color:#000000;font-style:normal;font-variant:normal;font-weight:normal;font-stretch:normal;font-size:medium;line-height:normal;font-family:sans-serif;font-variant-ligatures:normal;font-variant-position:normal;font-variant-caps:normal;font-variant-numeric:normal;font-variant-alternates:normal;font-variant-east-asian:normal;font-feature-settings:normal;font-variation-settings:normal;text-indent:0;text-align:start;text-decoration:none;text-decoration-line:none;text-decoration-style:solid;text-decoration-color:#000000;letter-spacing:normal;word-spacing:normal;text-transform:none;writing-mode:lr-tb;direction:ltr;text-orientation:mixed;dominant-baseline:auto;baseline-shift:baseline;text-anchor:start;white-space:normal;shape-padding:0;shape-margin:0;inline-size:0;clip-rule:nonzero;display:inline;overflow:visible;visibility:visible;isolation:auto;mix-blend-mode:normal;color-interpolation:sRGB;color-interpolation-filters:linearRGB;solid-color:#000000;solid-opacity:1;vector-effect:none;fill:#10b981;fill-opacity:1;fill-rule:nonzero;stroke:none;stroke-width:71.2453;stroke-linecap:butt;stroke-linejoin:miter;stroke-miterlimit:4;stroke-dasharray:none;stroke-dashoffset:496.214;stroke-opacity:1;paint-order:stroke fill markers;color-rendering:auto;image-rendering:auto;shape-rendering:auto;text-rendering:auto;enable-background:accumulate;stop-color:#000000;stop-opacity:1"
           d="M 449.79102 196.42773 C 257.02683 196.42783 100.00391 353.46226 100.00391 546.22656 C 100.00486 683.05274 179.95825 807.50174 304.40625 864.37109 L 340.91016 881.05078 L 421.87695 628.0293 L 401.125 612.87891 C 379.81837 597.32007 367.26562 572.60928 367.26562 546.22656 C 367.26515 500.27309 403.7141 463.76455 449.66211 463.69141 L 449.79102 463.69141 C 495.79602 463.69117 532.32665 500.22151 532.32617 546.22656 C 532.3257 572.60961 519.77437 597.3204 498.4668 612.87891 L 477.71484 628.0293 L 553.2832 864.18555 L 676.52344 916.37695 C 754.70235 949.48779 845.75812 912.61475 878.86914 834.43555 C 911.98017 756.25653 875.10665 665.2125 796.92773 632.10156 L 789.50586 628.95703 C 796.0951 601.90162 799.58937 574.15255 799.58984 546.22656 C 799.58984 353.46202 642.55521 196.42754 449.79102 196.42773 z M 994.86523 779.33203 C 931.18047 779.33208 879.33203 831.18075 879.33203 894.86523 C 879.33203 958.54972 931.18047 1010.3964 994.86523 1010.3965 C 1058.5495 1010.3964 1110.3965 958.54972 1110.3965 894.86523 C 1110.3965 831.18075 1058.5495 779.33208 994.86523 779.33203 z "
           transform="matrix(0.21054014,0,0,0.21054013,1586.3848,-420.96738)" />
      </g>
      <g
         id="g840"
         style="opacity:1" />
    </g>
  </g>
</svg>
