<svg width="800" height="637.15" version="1.1" viewBox="0 0 211.67 168.58" xmlns="http://www.w3.org/2000/svg" xmlns:xlink="http://www.w3.org/1999/xlink"><defs><linearGradient id="linearGradient16699-4" x1="3819.9" x2="3819.9" y1="5511.4" y2="5381.3" gradientTransform="matrix(.24321 -.10419 .10419 .24321 -1486.2 -772.55)" gradientUnits="userSpaceOnUse" xlink:href="#linearGradient18468"/><linearGradient id="linearGradient18468"><stop style="stop-color:#cfcfcf" offset="0"/><stop style="stop-color:#ffffff" offset="1"/></linearGradient><linearGradient id="linearGradient19030" x1="4089" x2="4089" y1="5562" y2="5403.6" gradientTransform="matrix(.26458 0 0 .26458 -1008.2 -1290.8)" gradientUnits="userSpaceOnUse" xlink:href="#linearGradient18468"/><clipPath id="clipPath27514"><path d="m5304 5562.6c23.247 1.8314 45.97 9.9352 65.131 23.227 25.705 17.833 44.645 44.842 53.923 74.72 8.4392 27.177 9.029 56.743 1.6803 84.235-34.831 20.58-74.373 33.132-114.7 36.407-10.881.8838-21.965 1.0873-32.574-1.4863-16.038-3.8905-30.39-14.31-39.056-28.354-8.666-14.044-11.542-31.545-7.8267-47.624 3.7154-16.079 13.978-30.544 27.927-39.363 13.949-8.8186 31.417-11.885 47.536-8.3454z" style="fill:url(#linearGradient27518);stroke-linecap:round;stroke-width:188.98"/></clipPath><filter id="filter27538" x="-.052968" y="-.15274" width="1.1059" height="1.3055" style="color-interpolation-filters:sRGB"><feGaussianBlur stdDeviation="10.901216"/></filter><clipPath id="clipPath27492"><path d="m5109.8 5566.9c-21.267 12.642-50.744 21.835-72.182 34.184-9.8053 5.6481-19.628 11.265-29.469 16.852 5.8581 43.983 22.96 86.422 49.235 122.18 1.4075 1.9155 2.8409 3.812 4.2994 5.6891 17.447-3.6063 34.516-9.0363 50.839-16.173 11.668-5.1012 22.956-11.073 33.738-17.85" style="fill:url(#linearGradient27496);stroke-linecap:round;stroke-width:188.98"/></clipPath><filter id="filter27530" x="-.052968" y="-.15274" width="1.1059" height="1.3055" style="color-interpolation-filters:sRGB"><feGaussianBlur stdDeviation="10.901216"/></filter><linearGradient id="linearGradient19032" x1="3969.6" x2="3969.6" y1="5635.8" y2="5337.9" gradientTransform="matrix(.26458 0 0 .26458 -1008.2 -1290.8)" gradientUnits="userSpaceOnUse" xlink:href="#linearGradient18468"/><clipPath id="clipPath27506"><path d="m5181 5553c-18.717 0-37.344 2.6025-55.344 7.7344l-8.8711 2.5312c-15.728 4.4843-20.973 19.855-24.504 35.824l-1.4434 6.5293c-8.3175 37.612-8.7408 76.54-1.2442 114.32l26.465 132.11h191.86l26.467-132.11c7.4967-37.784 7.0714-76.712-1.2461-114.32l-1.4434-6.5293c-3.5314-15.969-8.7759-31.34-24.504-35.824l-8.8711-2.5312c-18-5.1319-36.625-7.7344-55.342-7.7344z" style="fill:url(#linearGradient27510);stroke-linecap:round;stroke-width:190.28"/></clipPath><filter id="filter27534" x="-.052968" y="-.15274" width="1.1059" height="1.3055" style="color-interpolation-filters:sRGB"><feGaussianBlur stdDeviation="10.901216"/></filter><linearGradient id="linearGradient19034" x1="3922.2" x2="4021.1" y1="5304.2" y2="5304.2" gradientTransform="matrix(.26458 0 0 .26458 -1008.2 -1290.8)" gradientUnits="userSpaceOnUse"><stop style="stop-color:#deab87" offset="0"/><stop style="stop-color:#ebcfba" offset="1"/></linearGradient><linearGradient id="linearGradient24362" x1="3852.6" x2="4090.6" y1="5304.2" y2="5304.2" gradientTransform="matrix(.26458 0 0 .26458 -1008.2 -1290.8)" gradientUnits="userSpaceOnUse"><stop style="stop-color:#ffff00;stop-opacity:0" offset="0"/><stop style="stop-color:#ffff00" offset=".5"/><stop style="stop-color:#f9f025;stop-opacity:0" offset="1"/></linearGradient><radialGradient id="radialGradient18478-9" cx="3928.7" cy="5166" r="8.9535" gradientTransform="matrix(1 0 0 2.067 0 -5512.3)" gradientUnits="userSpaceOnUse" xlink:href="#linearGradient18484"/><linearGradient id="linearGradient18484"><stop style="stop-color:#191919" offset="0"/><stop style="stop-color:#000000;stop-opacity:.99143" offset="1"/></linearGradient><radialGradient id="radialGradient18476-6" cx="4015.4" cy="5164.9" r="8.9535" gradientTransform="matrix(1 0 0 2.067 0 -5511.1)" gradientUnits="userSpaceOnUse" xlink:href="#linearGradient18484"/><radialGradient id="radialGradient18517-4" cx="3962" cy="5223.6" r="21.677" gradientTransform="matrix(.25731 0 0 .28208 -979.36 -1382.2)" gradientUnits="userSpaceOnUse"><stop style="stop-color:#424242" offset="0"/><stop style="stop-color:#000000;stop-opacity:.99143" offset="1"/></radialGradient><linearGradient id="linearGradient19036" x1="3994.5" x2="4009.8" y1="5248.1" y2="5263.3" gradientTransform="matrix(0 -.26458 -.26458 0 1441.3 1158.7)" gradientUnits="userSpaceOnUse" xlink:href="#linearGradient18484"/><linearGradient id="linearGradient24356" x1="5210.5" x2="5210.5" y1="5511.5" y2="5240.7" gradientTransform="matrix(.26458 0 0 .26458 -1335.3 -1347.5)" gradientUnits="userSpaceOnUse"><stop style="stop-color:#ffff00" offset="0"/><stop style="stop-color:#ffff00;stop-opacity:0" offset="1"/></linearGradient><linearGradient id="linearGradient27548" x1="5141.3" x2="5289.3" y1="5705.2" y2="5705.2" gradientTransform="matrix(.26458 0 0 .26458 -1336.4 -1347.5)" gradientUnits="userSpaceOnUse"><stop style="stop-color:#333333" offset="0"/><stop style="stop-color:#777777" offset="1"/></linearGradient><linearGradient id="linearGradient20630" x1="5215.3" x2="5215.3" y1="5627.2" y2="5695.2" gradientTransform="matrix(.26458 0 0 .26458 -1336.4 -1346.4)" gradientUnits="userSpaceOnUse"><stop style="stop-color:#ffd726" offset="0"/><stop style="stop-color:#ff8e32;stop-opacity:0" offset="1"/></linearGradient><linearGradient id="linearGradient20634" x1="5215.3" x2="5215.3" y1="5627.2" y2="5695.2" gradientTransform="translate(4.5568e-5 3.9999)" gradientUnits="userSpaceOnUse"><stop style="stop-color:#ffd726" offset="0"/><stop style="stop-color:#ffdd32;stop-opacity:0" offset="1"/></linearGradient><filter id="filter22789" x="-.050801" y="-.12896" width="1.1016" height="1.2579" style="color-interpolation-filters:sRGB"><feGaussianBlur stdDeviation="2.7940729"/></filter><clipPath id="clipPath27478"><path d="m5037.6 5601.1c-9.8053 5.6481-19.628 11.265-29.469 16.852 5.8581 43.983 22.96 86.422 49.235 122.18 1.4075 1.9155 2.8409 3.812 4.2994 5.6891 10.56-2.1828 20.981-5.0336 31.183-8.5266" style="fill:url(#linearGradient27482);stroke-linecap:round;stroke-width:188.98"/></clipPath><filter id="filter27526" x="-.052968" y="-.15274" width="1.1059" height="1.3055" style="color-interpolation-filters:sRGB"><feGaussianBlur stdDeviation="10.901216"/></filter><linearGradient id="linearGradient20570" x1="5211.8" x2="5211.8" y1="5840.8" y2="5367.6" gradientTransform="matrix(.26458 0 0 .26458 -1336.2 -1348)" gradientUnits="userSpaceOnUse"><stop style="stop-color:#ffcd38" offset="0"/><stop style="stop-color:#ffdf0c;stop-opacity:0" offset="1"/></linearGradient></defs><g transform="translate(63.179 10.818)"><g transform="translate(0 -43.087)"><path d="m15.608 125.43c-5.6269 3.3448-13.426 5.7772-19.098 9.0445-2.5943 1.4944-5.1933 2.9806-7.7969 4.4587 1.55 11.637 6.0749 22.866 13.027 32.326.3724.50681.75165 1.0086 1.1375 1.5052 4.6161-.95417 9.1323-2.3908 13.451-4.2791 3.0873-1.3497 6.0738-2.9298 8.9266-4.7227" style="fill:url(#linearGradient16699-4);stroke-linecap:round;stroke-width:50"/><path d="m14.789 70.468h54.912c3.9401 0 6.3354 4.1967 5.4181 9.1541l-1.0736 5.8017c-.81378 4.3975-4.2252 7.7775-7.6858 7.7775h-48.23c-3.4606 0-6.872-3.38-7.6858-7.7775l-1.0736-5.8017c-.91739-4.9574 1.478-9.1541 5.4181-9.1541z" style="fill:#e0b08f;stroke-linecap:round;stroke-width:55.087"/><path d="m98.807 169.13c-1.7565 6.315-3.0794 12.751-3.9563 19.246-.55869 4.139-.93645 8.3024-1.1318 12.474h-30.649c-7.2419-2.5307-13.267-8.3377-16.063-15.482-2.7957-7.1438-2.3124-15.498 1.2883-22.272 3.2443-6.1034 8.9506-10.852 15.542-12.934 6.5912-2.0816 13.99-1.4716 20.151 1.6613z" style="fill:#e4ba9d;stroke-linecap:round;stroke-width:50"/><path d="m66.993 124.28c6.1508.48456 12.163 2.6287 17.232 6.1456 6.8012 4.7183 11.812 11.864 14.267 19.77 2.2329 7.1906 2.3889 15.013.44458 22.287-9.2156 5.4452-19.678 8.7661-30.347 9.6327-2.8789.23384-5.8116.28768-8.6185-.39325-4.2433-1.0294-8.0406-3.7862-10.334-7.5021-2.2929-3.7159-3.0539-8.3463-2.0708-12.601.98303-4.2543 3.6983-8.0814 7.389-10.415 3.6907-2.3333 8.3125-3.1447 12.577-2.2081z" style="fill:url(#linearGradient19030);stroke-linecap:round;stroke-width:50"/><path transform="matrix(.26458 0 0 .26458 -1336.4 -1347.5)" d="m4957 5582.9c-5.8047 7.3377-9.6816 16.22-10.907 25.496-1.2258 9.2755.2296 18.918 4.3264 27.33 4.0967 8.4115 10.845 15.542 19.117 19.914 8.2718 4.3719 18.036 5.9284 27.22 4.144 8.4179-1.6355 16.079-5.9232 23.223-10.666 7.1442-4.7432 13.968-10.021 21.563-14.002 12.08-6.3331 25.782-9.1763 39.414-9.632s27.247 1.4026 40.627 4.0489c26.761 5.2926 53.245 13.79 80.523 13.525 23.58-.2291 46.523-7.005 69.539-12.138 23.016-5.1326 47.247-8.6191 69.979-2.347 12.812 3.5349 24.604 10.036 37.192 14.301 6.2936 2.1329 12.822 3.7089 19.461 4.0049 6.6386.2959 13.409-.7288 19.407-3.5891 6.6837-3.1873 12.217-8.5955 15.926-15.004 3.7092-6.4088 5.6313-13.782 5.9509-21.18.6392-14.796-5.0082-29.268-12.885-41.809-14.132-22.502-35.489-39.957-59.281-51.788-23.792-11.831-49.983-18.266-76.349-21.558-101.28-12.646-202.97 20.214-295.1 64.123-14.361 6.8441-29.073 14.35-38.943 26.826z" clip-path="url(#clipPath27514)" style="fill:#ffff00;filter:url(#filter27538);opacity:.31302"/><path transform="matrix(.26458 0 0 .26458 -1336.4 -1347.5)" d="m4957 5582.9c-5.8047 7.3377-9.6816 16.22-10.907 25.496-1.2258 9.2755.2296 18.918 4.3264 27.33 4.0967 8.4115 10.845 15.542 19.117 19.914 8.2718 4.3719 18.036 5.9284 27.22 4.144 8.4179-1.6355 16.079-5.9232 23.223-10.666 7.1442-4.7432 13.968-10.021 21.563-14.002 12.08-6.3331 25.782-9.1763 39.414-9.632s27.247 1.4026 40.627 4.0489c26.761 5.2926 53.245 13.79 80.523 13.525 23.58-.2291 46.523-7.005 69.539-12.138 23.016-5.1326 47.247-8.6191 69.979-2.347 12.812 3.5349 24.604 10.036 37.192 14.301 6.2936 2.1329 12.822 3.7089 19.461 4.0049 6.6386.2959 13.409-.7288 19.407-3.5891 6.6837-3.1873 12.217-8.5955 15.926-15.004 3.7092-6.4088 5.6313-13.782 5.9509-21.18.6392-14.796-5.0082-29.268-12.885-41.809-14.132-22.502-35.489-39.957-59.281-51.788-23.792-11.831-49.983-18.266-76.349-21.558-101.28-12.646-202.97 20.214-295.1 64.123-14.361 6.8441-29.073 14.35-38.943 26.826z" clip-path="url(#clipPath27492)" style="fill:#ffff00;filter:url(#filter27530);opacity:.31302"/><path d="m34.455 121.73c-4.9522 0-9.8806.68858-14.643 2.0464l-2.3471.66971c-4.1614 1.1865-5.549 5.2534-6.4833 9.4785l-.3819 1.7276c-2.2007 9.9514-2.3127 20.251-.32919 30.248l7.0022 34.953h50.763l7.0027-34.953c1.9835-9.997 1.871-20.297-.3297-30.248l-.3819-1.7276c-.93435-4.2251-2.322-8.292-6.4833-9.4785l-2.3471-.66971c-4.7624-1.3578-9.6903-2.0464-14.643-2.0464z" style="fill:url(#linearGradient19032);stroke-linecap:round;stroke-width:50.344"/><path transform="matrix(.26458 0 0 .26458 -1336.4 -1347.5)" d="m4957 5582.9c-5.8047 7.3377-9.6816 16.22-10.907 25.496-1.2258 9.2755.2296 18.918 4.3264 27.33 4.0967 8.4115 10.845 15.542 19.117 19.914 8.2718 4.3719 18.036 5.9284 27.22 4.144 8.4179-1.6355 16.079-5.9232 23.223-10.666 7.1442-4.7432 13.968-10.021 21.563-14.002 12.08-6.3331 25.782-9.1763 39.414-9.632s27.247 1.4026 40.627 4.0489c26.761 5.2926 53.245 13.79 80.523 13.525 23.58-.2291 46.523-7.005 69.539-12.138 23.016-5.1326 47.247-8.6191 69.979-2.347 12.812 3.5349 24.604 10.036 37.192 14.301 6.2936 2.1329 12.822 3.7089 19.461 4.0049 6.6386.2959 13.409-.7288 19.407-3.5891 6.6837-3.1873 12.217-8.5955 15.926-15.004 3.7092-6.4088 5.6313-13.782 5.9509-21.18.6392-14.796-5.0082-29.268-12.885-41.809-14.132-22.502-35.489-39.957-59.281-51.788-23.792-11.831-49.983-18.266-76.349-21.558-101.28-12.646-202.97 20.214-295.1 64.123-14.361 6.8441-29.073 14.35-38.943 26.826z" clip-path="url(#clipPath27506)" style="fill:#ffff00;filter:url(#filter27534);opacity:.31302"/><path d="m40.938 90.239h3.4314c6.2979 0 11.368 5.0702 11.368 11.368v21.982c0 6.2979-5.0702 11.368-11.368 11.368h-3.4314c-6.2979 0-11.368-5.0702-11.368-11.368v-21.982c0-6.2979 5.0702-11.368 11.368-11.368z" style="fill:url(#linearGradient19034);stroke-linecap:round;stroke-width:53.556"/><path d="m40.938 90.239h3.4314c6.2979 0 11.368 5.0702 11.368 11.368v21.982c0 6.2979-5.0702 11.368-11.368 11.368h-3.4314c-6.2979 0-11.368-5.0702-11.368-11.368v-21.982c0-6.2979 5.0702-11.368 11.368-11.368z" style="fill:url(#linearGradient24362);opacity:.28855;stroke-linecap:round;stroke-width:53.556"/><path d="m42.245 41.101c16.604 0 28.225 15.48 26.32 32.367l-2.386 21.153c-1.3838 12.269-11.997 21.161-23.934 21.161s-22.55-8.892-23.934-21.161l-2.386-21.153c-1.9047-16.887 9.7163-32.367 26.32-32.367z" style="fill:#e5bda0;stroke-linecap:round;stroke-width:50"/><path d="m14.821 53.915c.27914-5.6034 2.5763-11.182 6.7125-14.972 2.5839-2.3681 5.795-3.9862 9.1516-4.9951 3.3566-1.0089 6.865-1.4292 10.366-1.6005 3.4271-.16767 6.8835-.09877 10.256.53197 3.3727.63077 6.6695 1.84 9.4768 3.8129 3.2745 2.3012 5.7756 5.5591 7.7554 9.0373 1.9798 3.4783 3.4801 7.2033 5.1088 10.859.53118 1.1924 1.0832 2.4011 1.2479 3.6961.08239.64746.06477 1.3121-.10104 1.9434-.16584.63127-.48421 1.2284-.95173 1.6838-.41574.405-.94133.69032-1.4992.85064s-1.1473.19807-1.7251.14378c-1.1557-.10858-2.2473-.57626-3.2749-1.1162-3.5488-1.8646-6.5897-4.6504-10.289-6.1942-2.6351-1.0996-5.5107-1.5242-8.3648-1.6066-2.8541-.08237-5.7058.1674-8.5541.36745-7.8169.54901-15.66.72488-23.463 1.4474-.5751.05339-1.15.10948-1.7245.16865-.15227-1.3462-.19508-2.7047-.12769-4.0578z" style="fill:#402311;stroke-linecap:round;stroke-width:50"/><path d="m68.741 61.113 2.9163 5.4399c.53607.78478 1.4344 1.3109 2.3811 1.3946.94673.08366 1.9234-.27668 2.5888-.95541.6168-.62902.95321-1.4925 1.0776-2.3646.12435-.87215.05159-1.76-.05604-2.6344-.66889-5.433-2.7072-10.703-5.9394-15.121-3.5895-4.9064-8.6437-8.7269-14.343-10.842-5.6994-2.1152-12.022-2.517-17.944-1.1402-5.9213 1.3767-11.418 4.5267-15.6 8.9393-4.1817 4.4126-7.032 10.071-8.0887 16.058l17.016-8.8036 22.623 2.3178z" style="fill:#3c2110"/><path d="m68.327 80.579c-.63294-3.2115-1.7405-6.329-3.2755-9.2199-1.5497-2.9185-3.5432-5.6333-4.5867-8.7686-.49922-1.5-.77105-3.0838-.70837-4.6635.06265-1.5797.46638-3.1553 1.2512-4.5276.78486-1.3723 1.9588-2.5339 3.3806-3.225 1.4218-.69114 3.091-.89445 4.6167-.47993 1.3431.36491 2.534 1.1878 3.476 2.2123 1.6713 1.8176 2.5751 4.2307 2.9932 6.6642.50702 2.9511.34491 6.0272-.56957 8.8785-1.0796 3.3659-3.1483 6.3086-4.8167 9.4248-.64564 1.2059-1.2335 2.4427-1.7609 3.7048z" style="fill:#3c2110;stroke-linecap:round;stroke-width:50"/><path d="m22.166 57.28c1.9742.23588 3.9675.3112 5.9538.22498 3.8624-.16766 7.7048-.94438 11.565-.72935 5.7409.31981 11.335 2.941 15.199 7.1988 1.8866 2.0787 3.3832 4.5336 5.5622 6.3034 1.0895.88491 2.3529 1.5872 3.7278 1.8694s2.8679.11729 4.067-.61222c.81395-.49519 1.4696-1.2345 1.9075-2.0807.43792-.84614.6619-1.796.69736-2.7481.07092-1.9042-.60073-3.773-1.5551-5.4223-2.0095-3.4724-5.3405-6.158-9.1601-7.3852" style="fill-opacity:.49992;fill:#4d4d4d;stroke-linecap:round;stroke-width:50"/><path d="m22.166 57.28c1.9742.23588 3.9675.3112 5.9538.22498 3.8624-.16764 7.7048-.9444 11.565-.72935 5.741.3198 11.335 2.941 15.199 7.1988 1.8866 2.0787 3.3833 4.5336 5.5622 6.3034 1.0894.8849 2.3529 1.5872 3.7278 1.8694 1.3749.2822 2.8678.11729 4.0669-.61222.81396-.49519 1.4696-1.2345 1.9075-2.0807.43791-.84614.66194-1.796.69736-2.7481.07093-1.9042-.60074-3.773-1.5551-5.4223-3.4427-4.9905-7.6602-7.8937-12.507-9.9204-6.7181-2.8091-18.629-3.0162-25.25-.01773-3.4143 1.5461-6.5991 3.5129-9.3671 5.9342z" style="fill:#502d16;stroke-linecap:round;stroke-width:50"/><g transform="matrix(.26458 0 0 .26458 -1008.7 -1288.2)"><path d="m3937.7 5166a8.9535 18.507 0 01-8.9535 18.507 8.9535 18.507 0 01-8.9535-18.507 8.9535 18.507 0 018.9535-18.507 8.9535 18.507 0 018.9535 18.507z" style="fill:url(#radialGradient18478-9);stroke-linecap:round;stroke-width:188.98"/><path d="m4024.4 5164.9a8.9535 18.507 0 01-8.9535 18.507 8.9535 18.507 0 01-8.9536-18.507 8.9535 18.507 0 018.9536-18.507 8.9535 18.507 0 018.9535 18.507z" style="fill:url(#radialGradient18476-6);stroke-linecap:round;stroke-width:188.98"/></g><path d="m40.598 84.994c-.77927-.02653-1.5638.10295-2.3008.38867-1.0613.41143-1.9761 1.1252-2.6465 2.0254-.66921.8987-1.0794 1.9591-1.2188 3.0547-.14328 1.1267.0019 2.2861.44531 3.3457.44394 1.061 1.1764 1.9942 2.127 2.6641 1.3896.9792 3.1568 1.3248 4.8125.93945 1.6557-.38536 3.088-1.4746 3.9023-2.9668a1.0583 1.0583 0 00-.42188-1.4375 1.0583 1.0583 0 00-1.4355.42188c-.51391.94164-1.4806 1.6767-2.5254 1.9199-1.0448.2432-2.2364.0105-3.1133-.60742-.60857-.42883-1.1022-1.0514-1.3945-1.75-.2929-.69997-.39421-1.4963-.29688-2.2617.09466-.74439.37976-1.4696.81836-2.0586.43751-.58749 1.0428-1.0574 1.7109-1.3164.91565-.35497 2.0188-.31682 2.9082.09961a1.0583 1.0583 0 001.4082-.50977 1.0583 1.0583 0 00-.50977-1.4062c-.71589-.33519-1.4903-.51839-2.2695-.54492z" style="color:#000000;fill:url(#radialGradient18517-4);stroke-linecap:round"/><path d="m53.428 96.143c-1.3418.24409-2.6142.81346-3.6895 1.6523-1.3855 1.0809-2.4101 2.5862-2.9082 4.2715a1.0583 1.0583 0 00.71484 1.3164 1.0583 1.0583 0 001.3145-.71679c.37012-1.2522 1.1522-2.398 2.1816-3.2012.80173-.62548 1.7652-1.0582 2.7656-1.2402a1.0583 1.0583 0 00.85156-1.2305 1.0583 1.0583 0 00-1.2305-.85156z" style="color:#000000;fill:url(#linearGradient19036);stroke-linecap:round"/><path d="m21.547 57.987c4.0895-4.5126 9.9325-7.3932 16.002-7.8892s12.303 1.3978 17.071 5.1866c4.6542 3.6984 7.8875 9.0507 12.886 12.269.74272.4782 1.523.90673 2.3575 1.1965s1.7271.43775 2.6059.34794c.83602-.08544 1.6489-.38807 2.3373-.87013.68836-.48206 1.2507-1.1425 1.6168-1.8989s.53527-1.6072.48631-2.4461c-.04896-.83894-.3159-1.6642-.76752-2.3729-1.7934-6.1506-5.7571-11.645-11.028-15.287-4.5865-3.1688-10.103-4.9267-15.672-5.1868-5.5687-.26011-11.177.95692-16.222 3.3282-5.1439 2.4176-9.7198 6.034-13.261 10.48z" style="fill:#402311"/><path d="m22.166 57.28c1.9742.23588 3.9675.3112 5.9538.22498 3.8624-.16764 7.7048-.9444 11.565-.72935 5.741.3198 11.335 2.941 15.199 7.1988 1.8866 2.0787 3.3833 4.5336 5.5622 6.3034 1.0894.8849 2.3529 1.5872 3.7278 1.8694 1.3749.2822 2.8678.11729 4.0669-.61222.81396-.49519 1.4696-1.2345 1.9075-2.0807.43791-.84614.66194-1.796.69736-2.7481.07093-1.9042-.60074-3.773-1.5551-5.4223-3.4427-4.9905-7.6602-7.8937-12.507-9.9204-6.7181-2.8091-18.629-3.0162-25.25-.01773-3.4143 1.5461-6.5991 3.5129-9.3671 5.9342z" style="fill:#3c2110;stroke-linecap:round;stroke-width:50"/><path d="m16.162 80.579c.63294-3.2115 1.7405-6.329 3.2755-9.2199 1.5497-2.9185 3.5432-5.6333 4.5867-8.7686.49922-1.5.77105-3.0838.70837-4.6635-.06265-1.5797-.46638-3.1553-1.2512-4.5276-.78486-1.3723-1.9588-2.5339-3.3806-3.225-1.4218-.69114-3.091-.89445-4.6167-.47993-1.3431.36491-2.534 1.1878-3.476 2.2123-1.6713 1.8176-2.5751 4.2307-2.9932 6.6642-.50702 2.9511-.34491 6.0272.56957 8.8785 1.0796 3.3659 3.1483 6.3086 4.8167 9.4248.64564 1.2059 1.2335 2.4427 1.7609 3.7048z" style="fill:#3c2110;stroke-linecap:round;stroke-width:50"/><path d="m46.199 34.088c-2.2794.01958-4.5564.28572-6.7768.802-5.9213 1.3767-11.418 4.5269-15.6 8.9395-1.7272 1.8226-3.2229 3.86-4.4633 6.0431-1.2418-.43431-2.6068-.52226-3.8747-.17777-1.343.36491-2.5337 1.1878-3.4758 2.2123-1.6713 1.8176-2.5755 4.2307-2.9936 6.6642-.50702 2.9511-.34449 6.0273.56999 8.8785.47641 1.4854 1.1496 2.8868 1.8919 4.2587-1.8386 1.6017-2.7228 4.5826-2.1063 7.9137l1.0738 5.8017c.81378 4.3975 4.2253 7.7778 7.6858 7.7778h.02011l.1602 1.419c1.3838 12.269 11.997 21.161 23.934 21.161 11.937 0 22.55-8.8924 23.934-21.161l.1602-1.419h.02064c3.4606 0 6.8715-3.3803 7.6853-7.7778l1.0738-5.8017c.61643-3.3311-.26765-6.312-2.1063-7.9137.58812-1.0869 1.1321-2.1925 1.5689-3.344.07461-.04643.15333-.08652.22532-.13695.19098-.13372.36944-.28395.53949-.44339.48067-.16174.92538-.4299 1.2806-.79219.6168-.62902.95358-1.4926 1.078-2.3647.12435-.87215.0513-1.7601-.05633-2.6345-.6689-5.433-2.707-10.703-5.9392-15.121-3.5895-4.9064-8.644-8.7265-14.343-10.842-3.5621-1.322-7.3678-1.975-11.167-1.9425z" style="fill:url(#linearGradient24356);opacity:.37438;stroke-linecap:round;stroke-width:55.087"/><path d="m43.519 153.63c-6.9552 0-11.882 6.744-11.14 14.178l3.2866 32.945c.0033.0328.0085.065.0124.0977h15.682c.0039-.0327.0096-.0648.01292-.0977l3.2861-32.945c.74155-7.4339-4.1847-14.178-11.14-14.178z" style="fill:#1a1a1a"/><path d="m-8.1876 140.71c-12.443 9.8347-21.692 19.14-25.131 30.649-3.4158 11.429-1.7588 22.602 5.6968 29.493h51.49c.30785-.12177.61146-.23749.92191-.36277.37125.21329.41176.23297.64027.36277h.1142c-.26785-.16643-.48902-.30542-.4625-.29972.58119.11385 1.1795.21142 1.7854.29972h12.197c8.2793-1.2233 15.459-5.099 15.445-12.554 2.3475-1.814 2.8192-4.6112 1.3198-7.6729 0 0 1.3161-8.3045-1.0955-9.078-8.5463-2.4553-17.536 9.7807-22.373-4.6566 0 0-2.0269 2.8072-2.9533 4.2793-5.9244 9.1792-22.239 11.397-33.156 11.217-2.5099-1.6476.87568-6.7517 8.1886-10.949z" style="fill:#e4ba9d;stroke-linecap:round;stroke-width:50"/><path d="m-3.4904 134.47c-2.5943 1.4944-5.1933 2.9806-7.7969 4.4587 1.55 11.637 6.0749 22.866 13.027 32.326.3724.50681.75165 1.0086 1.1375 1.5052 2.7939-.57753 5.5513-1.3318 8.2505-2.256" style="fill:url(#linearGradient16699-4);stroke-linecap:round;stroke-width:50"/><g><path d="m53.387 170.22a9.7926 3.3836 0 01-9.7926 3.3836 9.7926 3.3836 0 01-9.7926-3.3836 9.7926 3.3836 0 019.7926-3.3836 9.7926 3.3836 0 019.7926 3.3836z" style="color:#000000;fill:#333333;stroke-linecap:round;stroke-width:2.3874"/><path d="m43.594 165.65c-2.8156 0-5.3652.38313-7.3145 1.0566-.97462.33676-1.8024.7397-2.4629 1.2793-.66054.53961-1.209 1.3082-1.209 2.2422-1e-6.93394.54845 1.7026 1.209 2.2422.66054.5396 1.4883.94254 2.4629 1.2793 1.9492.67352 4.4989 1.0547 7.3145 1.0547s5.3652-.38117 7.3145-1.0547c.97462-.33675 1.8043-.73969 2.4648-1.2793.66054-.53961 1.207-1.3082 1.207-2.2422 1e-6-.93395-.54649-1.7026-1.207-2.2422-.66054-.5396-1.4902-.94254-2.4648-1.2793-1.9492-.67351-4.4989-1.0566-7.3145-1.0566zm0 2.3887c2.5927 0 4.9402.37468 6.5352.92578.79748.27555 1.4019.60108 1.7324.87109.33052.27001.33203.39217.33203.39258s-.0015.12257-.33203.39258c-.33052.27001-.93494.59554-1.7324.87109-1.595.5511-3.9425.92578-6.5352.92578s-4.9382-.37468-6.5332-.92578c-.79748-.27555-1.4039-.60108-1.7344-.87109s-.33008-.39217-.33008-.39258-.000446-.12257.33008-.39258.93689-.59554 1.7344-.87109c1.595-.5511 3.9405-.92578 6.5332-.92578z" style="color:#000000;fill:#252525;stroke-linecap:round"/></g><path d="m23.94 151.44 1.4034 5.9459c2.0862 8.1262 6.793 15.221 18.176 15.221 11.383 0 16.09-7.0945 18.176-15.221l1.4034-5.9459h-19.579z" style="fill:url(#linearGradient27548)"/><path d="m62.04 151.43a18.521 7.9375 0 01-18.521 7.9375 18.521 7.9375 0 01-18.521-7.9375 18.521 7.9375 0 0118.521-7.9375 18.521 7.9375 0 0118.521 7.9375z" style="color:#000000;fill:#ffffff;stroke-linecap:round;stroke-width:2.1167"/><path d="m43.519 144.56c-4.9918 0-9.5069.87953-12.679 2.2391-1.5862.67985-2.8311 1.481-3.6329 2.2934-.80179.81243-1.1503 1.5838-1.1503 2.3461 0 .76227.34854 1.5342 1.1503 2.3466.80179.81243 2.0466 1.6136 3.6329 2.2934 3.1724 1.3596 7.6875 2.2392 12.679 2.2392 4.9918 0 9.5069-.87953 12.679-2.2392 1.5862-.67982 2.831-1.481 3.6329-2.2934.80179-.81243 1.1503-1.5844 1.1503-2.3466 0-.76229-.34851-1.5337-1.1503-2.3461-.80182-.81243-2.0466-1.6136-3.6329-2.2934-3.1725-1.3596-7.6875-2.2391-12.679-2.2391z" style="color:#000000;fill:url(#linearGradient20630);stroke-linecap:round;stroke-width:2.1167"/><path d="m43.519 142.44c-5.2369 0-9.9821.89702-13.513 2.4102-1.7654.7566-3.2331 1.6655-4.3057 2.7523-1.0726 1.0868-1.7606 2.4038-1.7606 3.8333 0 1.4296.68802 2.746 1.7606 3.8329 1.0726 1.0868 2.5403 1.9957 4.3057 2.7523 3.5308 1.5132 8.2759 2.4102 13.513 2.4102 5.237 0 9.9821-.89702 13.513-2.4102 1.7654-.7566 3.2331-1.6654 4.3057-2.7523 1.0726-1.0868 1.7606-2.4038 1.7606-3.8334 0-1.4296-.688-2.746-1.7606-3.8328-1.0726-1.0868-2.5403-1.9957-4.3057-2.7523-3.5308-1.5132-8.2759-2.4102-13.513-2.4102zm0 2.1167c4.9918 0 9.5069.87953 12.679 2.2391 1.5862.67982 2.831 1.481 3.6329 2.2934.80179.81243 1.1503 1.5838 1.1503 2.3461 0 .7623-.34851 1.5342-1.1503 2.3466-.80182.81243-2.0466 1.6136-3.6329 2.2934-3.1725 1.3596-7.6875 2.2391-12.679 2.2391s-9.5068-.87953-12.679-2.2391c-1.5862-.67982-2.8311-1.481-3.6329-2.2934-.80179-.81243-1.1503-1.5843-1.1503-2.3466 0-.76229.34854-1.5337 1.1503-2.3461.80179-.81243 2.0466-1.6136 3.6329-2.2934 3.1725-1.3596 7.6875-2.2391 12.679-2.2391z" style="color:#000000;fill:#acacac;stroke-linecap:round;stroke-width:.26458"/><path transform="matrix(.26458 0 0 .26458 -1336.4 -1347.5)" d="m5215.3 5639.2c-18.867 0-35.932 3.3242-47.922 8.4629-5.9952 2.5694-10.7 5.5974-13.73 8.668s-4.3477 5.9861-4.3477 8.8672c0 2.881 1.3173 5.7985 4.3477 8.8691s7.7353 6.0986 13.73 8.6679c11.99 5.1388 29.055 8.463 47.922 8.463 18.867 0 35.932-3.3242 47.922-8.463 5.9952-2.5694 10.7-5.5973 13.73-8.6679 3.0304-3.0706 4.3476-5.9881 4.3476-8.8691 0-2.8811-1.3172-5.7966-4.3476-8.8672-3.0305-3.0706-7.7353-6.0986-13.73-8.668-11.99-5.1387-29.055-8.4629-47.922-8.4629z" style="color:#000000;fill:url(#linearGradient20634);filter:url(#filter22789);mix-blend-mode:normal;stroke-linecap:round;stroke-width:8"/><path transform="matrix(.26458 0 0 .26458 -1336.4 -1347.5)" d="m4957 5582.9c-5.8047 7.3377-9.6816 16.22-10.907 25.496-1.2258 9.2755.2296 18.918 4.3264 27.33 4.0967 8.4115 10.845 15.542 19.117 19.914 8.2718 4.3719 18.036 5.9284 27.22 4.144 8.4179-1.6355 16.079-5.9232 23.223-10.666 7.1442-4.7432 13.968-10.021 21.563-14.002 12.08-6.3331 25.782-9.1763 39.414-9.632s27.247 1.4026 40.627 4.0489c26.761 5.2926 53.245 13.79 80.523 13.525 23.58-.2291 46.523-7.005 69.539-12.138 23.016-5.1326 47.247-8.6191 69.979-2.347 12.812 3.5349 24.604 10.036 37.192 14.301 6.2936 2.1329 12.822 3.7089 19.461 4.0049 6.6386.2959 13.409-.7288 19.407-3.5891 6.6837-3.1873 12.217-8.5955 15.926-15.004 3.7092-6.4088 5.6313-13.782 5.9509-21.18.6392-14.796-5.0082-29.268-12.885-41.809-14.132-22.502-35.489-39.957-59.281-51.788-23.792-11.831-49.983-18.266-76.349-21.558-101.28-12.646-202.97 20.214-295.1 64.123-14.361 6.8441-29.073 14.35-38.943 26.826z" clip-path="url(#clipPath27478)" style="fill:#ffff00;filter:url(#filter27526);opacity:.31302"/><path d="m-45.349 53.395 71.53 96.477c0 .76226.34854 1.5342 1.1503 2.3466.80179.81243 2.0466 1.6136 3.6329 2.2934 3.1724 1.3596 7.6875 2.2392 12.679 2.2392 4.9918 0 9.5069-.87953 12.679-2.2392 1.5862-.67982 2.831-1.481 3.6329-2.2934.80179-.81243 1.1503-1.5844 1.1503-2.3466l69.669-96.477z" style="fill:url(#linearGradient20570)"/></g></g></svg>
