<?xml version="1.0" encoding="UTF-8" standalone="no"?>
<svg
   width="800"
   height="637.15698"
   version="1.1"
   viewBox="0 0 211.67 168.58377"
   id="svg89"
   sodipodi:docname="light.svg"
   inkscape:version="1.2 (1:1.2.1+202207142221+cd75a1ee6d)"
   xmlns:inkscape="http://www.inkscape.org/namespaces/inkscape"
   xmlns:sodipodi="http://sodipodi.sourceforge.net/DTD/sodipodi-0.dtd"
   xmlns:xlink="http://www.w3.org/1999/xlink"
   xmlns="http://www.w3.org/2000/svg"
   xmlns:svg="http://www.w3.org/2000/svg">
  <sodipodi:namedview
     id="namedview91"
     pagecolor="#ffffff"
     bordercolor="#000000"
     borderopacity="0.25"
     inkscape:showpageshadow="2"
     inkscape:pageopacity="0.0"
     inkscape:pagecheckerboard="0"
     inkscape:deskcolor="#d1d1d1"
     showgrid="false"
     inkscape:zoom="0.34201065"
     inkscape:cx="191.51451"
     inkscape:cy="460.51198"
     inkscape:window-width="1366"
     inkscape:window-height="704"
     inkscape:window-x="0"
     inkscape:window-y="27"
     inkscape:window-maximized="1"
     inkscape:current-layer="svg89" />
  <defs
     id="defs39">
    <linearGradient
       id="linearGradient14413"
       x1="3645.3999"
       x2="3691.8999"
       y1="5349.7998"
       y2="5303.2998"
       gradientUnits="userSpaceOnUse">
      <stop
         style="stop-color:#e1b191"
         offset="0"
         id="stop2" />
      <stop
         style="stop-color:#e2b496;stop-opacity:0"
         offset="1"
         id="stop4" />
    </linearGradient>
    <clipPath
       id="clipPath13713">
      <path
         d="m 3805.6,5375.1 c -20.537,-11.858 -45.248,-7.5367 -59.436,-23.415 -22.226,-39.284 -31.879,-96.221 -33.135,-139.52 -0.2821,-14.069 4.7527,-28.01 13.093,-39.344 3.8964,-5.2946 8.5664,-10.186 10.967,-16.306 1.0296,-2.6248 1.6128,-5.4434 1.522,-8.2615 -0.091,-2.8181 -0.8723,-5.6348 -2.4042,-8.0018 -1.532,-2.3671 -3.8324,-4.2621 -6.5105,-5.1437 -2.6782,-0.8817 -5.7227,-0.704 -8.2017,0.6393 -2.3222,1.2583 -4.0098,3.4007 -5.6739,5.4517 -3.406,4.1978 -6.9958,8.2567 -10.106,12.678 -1.6477,2.3422 -3.1574,4.7815 -4.5184,7.3011 1.0658,-15.342 -0.1387,-30.84 -3.5622,-45.834 -2.724,-11.93 -6.9814,-23.781 -14.664,-33.305 -0.902,-1.1182 -1.8893,-2.2323 -3.1927,-2.8364 -1.4572,-0.6754 -3.1845,-0.6286 -4.697,-0.088 -1.5126,0.5403 -2.8273,1.5394 -3.9425,2.6953 -1.8921,1.961 -3.2693,4.4145 -3.958,7.051 -0.6887,2.6366 -0.6873,5.4502 0,8.086 -2.3881,-2.2294 -4.8764,-4.3515 -7.4549,-6.3576 -0.8351,-0.6497 -1.6832,-1.2896 -2.6074,-1.8049 -0.9242,-0.5152 -1.9318,-0.9048 -2.9837,-1.0197 -1.1441,-0.125 -2.3156,0.082 -3.3707,0.5414 -1.0552,0.4596 -1.9951,1.167 -2.7708,2.0172 -1.5514,1.7003 -2.4234,3.928 -2.8722,6.1856 -0.677,3.4058 -0.4472,6.9875 0.6594,10.279 0.2875,-2.0947 -0.5488,-4.3103 -2.1485,-5.6927 -1.5997,-1.3825 -3.9132,-1.8886 -5.9441,-1.3005 -1.7837,0.5165 -3.2744,1.8041 -4.3229,3.3367 -1.0486,1.5326 -1.6939,3.3039 -2.2076,5.0884 -1.6006,5.5603 -2.0125,11.46 -1.2001,17.188 -0.4335,-0.8219 -1.0957,-1.5217 -1.8924,-1.9999 -0.7968,-0.4782 -1.7258,-0.7334 -2.655,-0.7294 -1.446,0.01 -2.8424,0.6346 -3.9625,1.549 -1.1202,0.9144 -1.9882,2.1012 -2.7333,3.3405 -2.4822,4.1287 -3.6956,8.9133 -4.2424,13.7 -0.5468,4.7867 -0.4579,9.6187 -0.5149,14.436 -0.1155,9.7508 -0.832,19.501 -0.4589,29.245 0.373,9.7443 1.8829,19.593 5.9941,28.435 2.5152,5.4097 5.9486,10.331 9.2641,15.29 0.2091,0.3128 0.4178,0.6259 0.6261,0.9392 -3.8243,34.763 -3.989,69.928 -0.4905,104.73 3.4194,34.01 10.731,68.641 29.754,97.04 18.258,27.257 46.5,47.067 77.439,57.979 30.575,10.784 64.048,13.219 95.862,6.9748 13.509,-18.958 18.59,-43.7 13.646,-66.448 -4.9442,-22.748 -19.837,-43.149 -39.996,-54.789 z"
         style="fill:#e4ba9d;stroke-width:188.98;stroke-linecap:round"
         id="path7" />
    </clipPath>
    <clipPath
       id="clipPath12947">
      <path
         d="m 3805.6,5375.1 c -20.537,-11.858 -45.248,-7.5367 -59.436,-23.415 -22.226,-39.284 -31.879,-96.221 -33.135,-139.52 -0.2821,-14.069 4.7527,-28.01 13.093,-39.344 3.8964,-5.2946 8.5664,-10.186 10.967,-16.306 1.0296,-2.6248 1.6128,-5.4434 1.522,-8.2615 -0.091,-2.8181 -0.8723,-5.6348 -2.4042,-8.0018 -1.532,-2.3671 -3.8324,-4.2621 -6.5105,-5.1437 -2.6782,-0.8817 -5.7227,-0.704 -8.2017,0.6393 -2.3222,1.2583 -4.0098,3.4007 -5.6739,5.4517 -3.406,4.1978 -6.9958,8.2567 -10.106,12.678 -1.6477,2.3422 -3.1574,4.7815 -4.5184,7.3011 1.0658,-15.342 -0.1387,-30.84 -3.5622,-45.834 -2.724,-11.93 -6.9814,-23.781 -14.664,-33.305 -0.902,-1.1182 -1.8893,-2.2323 -3.1927,-2.8364 -1.4572,-0.6754 -3.1845,-0.6286 -4.697,-0.088 -1.5126,0.5403 -2.8273,1.5394 -3.9425,2.6953 -1.8921,1.961 -3.2693,4.4145 -3.958,7.051 -0.6887,2.6366 -0.6873,5.4502 0,8.086 -2.3881,-2.2294 -4.8764,-4.3515 -7.4549,-6.3576 -0.8351,-0.6497 -1.6832,-1.2896 -2.6074,-1.8049 -0.9242,-0.5152 -1.9318,-0.9048 -2.9837,-1.0197 -1.1441,-0.125 -2.3156,0.082 -3.3707,0.5414 -1.0552,0.4596 -1.9951,1.167 -2.7708,2.0172 -1.5514,1.7003 -2.4234,3.928 -2.8722,6.1856 -0.677,3.4058 -0.4472,6.9875 0.6594,10.279 0.2875,-2.0947 -0.5488,-4.3103 -2.1485,-5.6927 -1.5997,-1.3825 -3.9132,-1.8886 -5.9441,-1.3005 -1.7837,0.5165 -3.2744,1.8041 -4.3229,3.3367 -1.0486,1.5326 -1.6939,3.3039 -2.2076,5.0884 -1.6006,5.5603 -2.0125,11.46 -1.2001,17.188 -0.4335,-0.8219 -1.0957,-1.5217 -1.8924,-1.9999 -0.7968,-0.4782 -1.7258,-0.7334 -2.655,-0.7294 -1.446,0.01 -2.8424,0.6346 -3.9625,1.549 -1.1202,0.9144 -1.9882,2.1012 -2.7333,3.3405 -2.4822,4.1287 -3.6956,8.9133 -4.2424,13.7 -0.5468,4.7867 -0.4579,9.6187 -0.5149,14.436 -0.1155,9.7508 -0.832,19.501 -0.4589,29.245 0.373,9.7443 1.8829,19.593 5.9941,28.435 2.5152,5.4097 5.9486,10.331 9.2641,15.29 0.2091,0.3128 0.4178,0.6259 0.6261,0.9392 -3.8243,34.763 -3.989,69.928 -0.4905,104.73 3.4194,34.01 10.731,68.641 29.754,97.04 18.258,27.257 46.5,47.067 77.439,57.979 30.575,10.784 64.048,13.219 95.862,6.9748 13.509,-18.958 18.59,-43.7 13.646,-66.448 -4.9442,-22.748 -19.837,-43.149 -39.996,-54.789 z"
         style="fill:#e4ba9d;stroke-width:188.98;stroke-linecap:round"
         id="path10" />
    </clipPath>
    <linearGradient
       id="linearGradient16699"
       x1="3819.8999"
       x2="3819.8999"
       y1="5511.3999"
       y2="5381.2998"
       gradientTransform="matrix(0.26458,0,0,0.26458,-974.6,-1259.6)"
       gradientUnits="userSpaceOnUse"
       xlink:href="#linearGradient18468" />
    <linearGradient
       id="linearGradient18468">
      <stop
         style="stop-color:#cfcfcf"
         offset="0"
         id="stop14" />
      <stop
         style="stop-color:#ffffff"
         offset="1"
         id="stop16" />
    </linearGradient>
    <linearGradient
       id="linearGradient16697"
       x1="4089"
       x2="4089"
       y1="5562"
       y2="5403.6001"
       gradientTransform="matrix(0.26458,0,0,0.26458,-978.15,-1257.8)"
       gradientUnits="userSpaceOnUse"
       xlink:href="#linearGradient18468" />
    <linearGradient
       id="linearGradient16137"
       x1="3969.6001"
       x2="3969.6001"
       y1="5635.7998"
       y2="5337.8999"
       gradientTransform="matrix(0.26458,0,0,0.26458,-978.15,-1257.8)"
       gradientUnits="userSpaceOnUse"
       xlink:href="#linearGradient18468" />
    <linearGradient
       id="linearGradient18462"
       x1="3922.2"
       x2="4021.1001"
       y1="5304.2002"
       y2="5304.2002"
       gradientTransform="matrix(0.26458,0,0,0.26458,-978.15,-1257.8)"
       gradientUnits="userSpaceOnUse">
      <stop
         style="stop-color:#deab87"
         offset="0"
         id="stop21" />
      <stop
         style="stop-color:#ebcfba"
         offset="1"
         id="stop23" />
    </linearGradient>
    <radialGradient
       id="radialGradient18478"
       cx="3928.7"
       cy="5166"
       r="8.9534998"
       gradientTransform="matrix(0.26458,0,0,0.5469,-978.68,-2713.7)"
       gradientUnits="userSpaceOnUse"
       xlink:href="#linearGradient18484" />
    <linearGradient
       id="linearGradient18484">
      <stop
         style="stop-color:#191919"
         offset="0"
         id="stop27" />
      <stop
         style="stop-color:#000000;stop-opacity:.99143"
         offset="1"
         id="stop29" />
    </linearGradient>
    <radialGradient
       id="radialGradient18476"
       cx="4015.3999"
       cy="5164.8999"
       r="8.9534998"
       gradientTransform="matrix(0.26458,0,0,0.5469,-978.68,-2713.4)"
       gradientUnits="userSpaceOnUse"
       xlink:href="#linearGradient18484" />
    <radialGradient
       id="radialGradient18517"
       cx="3962"
       cy="5223.6001"
       r="21.677"
       gradientTransform="matrix(0.25731,0,0,0.28208,-949.34,-1349.2)"
       gradientUnits="userSpaceOnUse">
      <stop
         style="stop-color:#424242"
         offset="0"
         id="stop33" />
      <stop
         style="stop-color:#000000;stop-opacity:.99143"
         offset="1"
         id="stop35" />
    </radialGradient>
    <linearGradient
       id="linearGradient18669"
       x1="3994.5"
       x2="4009.8"
       y1="5248.1001"
       y2="5263.2998"
       gradientTransform="matrix(0.26458,0,0,0.26458,-978.15,-1257.8)"
       gradientUnits="userSpaceOnUse"
       xlink:href="#linearGradient18484" />
  </defs>
  <g
     transform="translate(33.163036,-65.216087)"
     id="g87">
    <g
       id="g85">
      <path
         d="m 32.288,162.56 c -5.4337,-3.1375 -11.972,-1.9941 -15.726,-6.1953 -5.8806,-10.394 -8.4348,-25.458 -8.7669,-36.914 -0.074639,-3.7224 1.2575,-7.4111 3.4643,-10.41 1.0309,-1.4009 2.2665,-2.695 2.9017,-4.3142 0.27242,-0.69448 0.42672,-1.4402 0.4027,-2.1859 -0.02408,-0.74562 -0.2308,-1.4909 -0.63611,-2.1171 -0.40534,-0.62629 -1.014,-1.1277 -1.7226,-1.3609 -0.70861,-0.23328 -1.5141,-0.18627 -2.17,0.16915 -0.61442,0.33292 -1.0609,0.89977 -1.5012,1.4424 -0.90117,1.1107 -1.851,2.1846 -2.6739,3.3544 -0.43595,0.61971 -0.8354,1.2651 -1.1955,1.9318 0.28199,-4.0593 -0.036698,-8.1598 -0.9425,-12.127 -0.72072,-3.1564 -1.8472,-6.292 -3.8799,-8.8119 -0.23865,-0.29586 -0.49988,-0.59063 -0.84474,-0.75046 -0.38555,-0.1787 -0.84257,-0.16632 -1.2427,-0.02328 -0.40021,0.14296 -0.74806,0.4073 -1.0431,0.71313 -0.50062,0.51885 -0.865,1.168 -1.0472,1.8656 -0.18222,0.6976 -0.18185,1.442 0,2.1394 -0.63185,-0.58986 -1.2902,-1.1513 -1.9724,-1.6821 -0.22095,-0.1719 -0.44535,-0.34121 -0.68987,-0.47755 -0.24453,-0.13631 -0.51112,-0.2394 -0.78944,-0.2698 -0.30271,-0.03307 -0.61267,0.0217 -0.89183,0.14324 -0.27919,0.1216 -0.52787,0.30877 -0.73311,0.53372 -0.41047,0.44987 -0.64119,1.0393 -0.75994,1.6366 -0.17912,0.90112 -0.11832,1.8488 0.17447,2.7196 0.076068,-0.55422 -0.1452,-1.1404 -0.56846,-1.5062 -0.42325,-0.36579 -1.0354,-0.49969 -1.5727,-0.34409 -0.47194,0.13666 -0.86635,0.47734 -1.1438,0.88284 -0.27744,0.4055 -0.44818,0.87416 -0.5841,1.3463 -0.42349,1.4712 -0.53247,3.032 -0.31753,4.5478 -0.1147,-0.21746 -0.2899,-0.40262 -0.5007,-0.52914 -0.21082,-0.12652 -0.45662,-0.19404 -0.70247,-0.19299 -0.38259,0.0026 -0.75205,0.1679 -1.0484,0.40984 -0.29639,0.24194 -0.52604,0.55594 -0.72318,0.88384 -0.65675,1.0924 -0.9778,2.3583 -1.1225,3.6247 -0.14467,1.2664 -0.12115,2.545 -0.13623,3.8195 -0.03056,2.5799 -0.22013,5.1596 -0.12142,7.7378 0.09869,2.5782 0.49818,5.184 1.5859,7.5235 0.66548,1.4313 1.5739,2.7334 2.4511,4.0456 0.05533,0.0828 0.11054,0.16561 0.16566,0.2485 -1.0118,9.1977 -1.0554,18.502 -0.12978,27.709 0.90472,8.9985 2.8392,18.161 7.8724,25.675 4.8308,7.2117 12.303,12.453 20.489,15.34 8.0896,2.8532 16.946,3.4976 25.364,1.8454 3.5743,-5.016 4.9187,-11.562 3.6105,-17.581 -1.3082,-6.0187 -5.2485,-11.416 -10.582,-14.496 z"
         style="fill:#e4ba9d;stroke-width:50;stroke-linecap:round"
         id="path41" />
      <path
         transform="matrix(0.26458,0,0,0.26458,-974.6,-1259.6)"
         d="m 3616.7,5236.4 c -3.8213,0.2443 -7.7176,-0.9559 -10.739,-3.308 -3.0214,-2.3521 -5.1409,-5.8349 -5.8416,-9.5993 -0.7007,-3.7645 0.024,-7.7766 1.9965,-11.058 1.9728,-3.2817 5.1764,-5.8035 8.8296,-6.9505 3.852,-1.2094 8.0244,-0.904 11.982,-0.1039 3.9573,0.8 7.8089,2.0783 11.78,2.8055 8.9732,1.6431 18.458,0.3587 26.672,-3.6115 8.2131,-3.9703 15.112,-10.606 19.398,-18.658 l 29.098,-33.425 c 0.5803,-4.7789 1.9109,-9.4659 3.9284,-13.837 1.0747,-2.3285 2.3524,-4.5808 4.0055,-6.5414 1.653,-1.9607 3.6979,-3.6264 6.0618,-4.6206 2.364,-0.9943 5.0592,-1.2857 7.5252,-0.5815 2.4659,0.7043 4.663,2.4546 5.6904,4.8043 0.5735,1.3115 0.7778,2.7708 0.675,4.1985 -0.1027,1.4278 -0.5062,2.8251 -1.0992,4.1279 -1.186,2.6056 -3.0984,4.8046 -5.0533,6.8961 -3.6898,3.9477 -7.6297,7.6622 -11.182,11.734 -3.5519,4.0721 -6.7382,8.5541 -8.6467,13.609 -2.3862,6.3205 -2.6777,13.254 -4.7929,19.67 -1.9346,5.8685 -5.4064,11.223 -9.9749,15.384 -4.5685,4.1607 -10.223,7.1182 -16.246,8.4972 2.3291,9.4706 4.2137,19.05 5.6456,28.698 4.4476,29.965 4.5342,60.582 11.225,90.127 4.6959,20.737 70.303,97.022 79.113,116.37 7.9377,17.434 10.44,37.272 12.815,56.28 -25.648,181.7 -14.845,14.927 -72.322,-8.3339 -8.526,5.1699 -19.007,6.7224 -28.843,5.0863 -9.8358,-1.6362 -19.027,-6.3233 -26.721,-12.665 -15.388,-12.684 -24.538,-31.29 -32.096,-49.744 -16.663,-40.69 -27.89,-84.204 -27.06,-128.17 0.4954,-26.238 5.3052,-52.39 14.178,-77.088 z"
         clip-path="url(#clipPath13713)"
         style="fill:url(#linearGradient14413)"
         id="path43" />
      <path
         transform="matrix(0.26458,0,0,0.26458,-974.6,-1259.6)"
         d="m 3661.6,5074.3 c -0.7298,-2.8429 7.4479,7.5199 7.0681,4.6095 29.561,16.764 9.7299,72.197 32.767,82.358 1.8554,-3.8545 4.1373,-7.5036 6.7906,-10.859 1.5986,-0.516 11.837,-26.868 19.496,-19.966 7.659,6.902 -1.1354,9.1387 -4.2138,11.991 -5.0259,3.0017 -9.4736,7.4081 -12.066,12.058 -2.0578,3.7456 -3.5559,7.7665 -5.235,11.696 -4.0597,9.5016 -9.2396,18.572 -15.864,26.502 -7.5178,8.9986 -16.796,16.411 -26.718,22.66 -5.4901,3.4579 -11.279,6.6112 -17.582,8.1474 -6.3038,1.5363 -13.223,1.3301 -18.967,-1.6877 -3.5807,-1.8813 -6.5759,-4.7855 -8.816,-8.1534 -2.24,-3.368 -3.7451,-7.1906 -4.6945,-11.122 -1.8988,-7.8637 -1.6029,-16.064 -1.5006,-24.154 0.2083,-16.472 -0.4347,-32.961 -2.1216,-49.348 -0.1583,-1.5378 -0.326,-3.0805 -0.2781,-4.6257 0.048,-1.5452 0.3195,-3.1046 0.9995,-4.4929 0.6801,-1.3883 1.7966,-2.597 3.2206,-3.1988 0.712,-0.3008 1.4925,-0.4461 2.2637,-0.3943 0.7713,0.052 1.5317,0.3033 2.1667,0.744 0.5905,0.4098 1.0643,0.9751 1.4149,1.6025 0.3507,0.6274 0.5817,1.3165 0.7366,2.0184 0.31,1.4038 0.3201,2.8543 0.4911,4.2816 3.1122,12.844 3.3001,19.819 11.948,27.33 -0.6195,-7.8068 -2.2334,-19.557 -3.1957,-28.721 -0.5517,-5.2542 -2.6086,-7.0167 -2.3276,-10.818 0.5216,-7.0572 3.6645,-5.4264 3.9746,-12.496 0.019,-0.4268 0.034,-0.8599 0.1644,-1.2668 0.065,-0.2035 0.1589,-0.3989 0.2893,-0.5681 0.1303,-0.1692 0.298,-0.3117 0.4926,-0.3997 0.2559,-0.1158 0.5513,-0.1331 0.8247,-0.069 0.2735,0.064 0.5252,0.2072 0.7358,0.393 0.4213,0.3717 0.6717,0.898 0.8669,1.4248 8.7651,15.039 3.3281,39.166 17.295,46.96 -1.7092,-4.9393 -2.89,-10.061 -3.5158,-15.25 -0.4937,-4.094 -0.6423,-8.2206 -0.9273,-12.334 -0.1543,-7.9361 -2.4507,-15.036 -4.1021,-22.027 -0.5271,-2.2678 -0.7638,-4.087 -0.4379,-6.3923 0.4521,-3.1975 2.1477,-6.2027 4.6509,-8.2429 15.013,22.227 12.841,61.925 22.812,61.279 -0.072,-8.1857 -0.1273,-16.372 -0.1645,-24.557 -0.027,-5.9332 -3.1261,-23.033 -4.6013,-28.78 z"
         clip-path="url(#clipPath12947)"
         style="fill:#eac8b0"
         id="path45" />
      <path
         d="m 52.524,156.04 c -6.4894,0.85873 -14.864,1.203 -21.365,1.9727 -2.9732,0.35203 -5.9474,0.69472 -8.9228,1.0281 -3.1579,11.307 -3.4203,23.411 -0.75554,34.844 0.14274,0.61251 0.29374,1.2231 0.45289,1.8316 4.6189,0.9407 9.3359,1.3985 14.049,1.3636 3.3693,-0.0249 6.7368,-0.30128 10.065,-0.82587"
         style="fill:url(#linearGradient16699);stroke-width:50;stroke-linecap:round"
         id="path47" />
      <path
         d="m 44.805,103.42 h 54.912 c 3.9401,0 6.3354,4.1967 5.4181,9.1541 l -1.0736,5.8017 c -0.81378,4.3975 -4.2252,7.7775 -7.6858,7.7775 h -48.23 c -3.4606,0 -6.872,-3.38 -7.6858,-7.7775 l -1.0736,-5.8017 c -0.91739,-4.9574 1.478,-9.1541 5.4181,-9.1541 z"
         style="fill:#e0b08f;stroke-width:55.087;stroke-linecap:round"
         id="path49" />
      <path
         d="m 128.82,202.08 c -1.7566,6.315 -3.0794,12.751 -3.9563,19.246 -0.55869,4.139 -0.93645,8.3024 -1.1318,12.474 h -30.649 c -7.2419,-2.5307 -13.267,-8.3377 -16.063,-15.482 -2.7957,-7.1438 -2.3124,-15.498 1.2883,-22.272 3.2443,-6.1034 8.9506,-10.852 15.542,-12.934 6.5912,-2.0816 13.99,-1.4716 20.151,1.6613 z"
         style="fill:#e4ba9d;stroke-width:50;stroke-linecap:round"
         id="path51" />
      <path
         d="m 97.009,157.23 c 6.1509,0.48456 12.163,2.6287 17.232,6.1456 6.8012,4.7183 11.812,11.864 14.267,19.77 2.2329,7.1906 2.3889,15.013 0.44458,22.287 -9.2156,5.4452 -19.678,8.7661 -30.347,9.6327 -2.8789,0.23384 -5.8116,0.28768 -8.6185,-0.39325 -4.2433,-1.0294 -8.0406,-3.7862 -10.334,-7.5021 -2.2929,-3.7159 -3.0539,-8.3463 -2.0708,-12.601 0.98303,-4.2543 3.6983,-8.0814 7.389,-10.415 3.6907,-2.3332 8.3125,-3.1446 12.577,-2.208 z"
         style="fill:url(#linearGradient16697);stroke-width:50;stroke-linecap:round"
         id="path53" />
      <path
         d="m 64.471,154.67 c -4.9522,0 -9.8806,0.68858 -14.643,2.0464 l -2.3471,0.66971 c -4.1614,1.1865 -5.549,5.2534 -6.4833,9.4785 l -0.3819,1.7275 c -2.2007,9.9515 -2.3127,20.251 -0.32919,30.248 l 7.0022,34.953 h 50.763 l 7.0027,-34.953 c 1.9835,-9.997 1.871,-20.297 -0.32969,-30.248 l -0.3819,-1.7275 c -0.93435,-4.2251 -2.322,-8.292 -6.4833,-9.4785 l -2.3471,-0.66971 c -4.7624,-1.3578 -9.6903,-2.0464 -14.643,-2.0464 z"
         style="fill:url(#linearGradient16137);stroke-width:50.344;stroke-linecap:round"
         id="path55" />
      <path
         d="m 70.955,123.19 h 3.4314 c 6.2979,0 11.368,5.0702 11.368,11.368 v 21.982 c 0,6.2979 -5.0702,11.368 -11.368,11.368 H 70.955 c -6.2979,0 -11.368,-5.0702 -11.368,-11.368 v -21.982 c 0,-6.2979 5.0702,-11.368 11.368,-11.368 z"
         style="fill:url(#linearGradient18462);stroke-width:53.556;stroke-linecap:round"
         id="path57" />
      <path
         d="m 72.261,67.83 c 19.671,0 31.15,21.171 27.031,41.191 l -4.4178,21.469 c -2.2526,10.947 -12.171,18.292 -22.613,18.292 -10.442,0 -20.36,-7.3457 -22.613,-18.292 L 45.2304,109.021 C 41.1108,89.001 52.5903,67.83 72.2614,67.83 Z"
         style="fill:#e5bda0;stroke-width:50;stroke-linecap:round"
         id="path59" />
      <path
         d="m 44.837,86.862 c 0.27914,-5.6034 2.5763,-11.182 6.7125,-14.972 2.5839,-2.3681 5.795,-3.9862 9.1516,-4.9951 3.3566,-1.0089 6.865,-1.4292 10.366,-1.6005 3.4271,-0.16767 6.8835,-0.09877 10.256,0.53197 3.3727,0.63077 6.6695,1.84 9.4768,3.8129 3.2745,2.3012 5.7756,5.5591 7.7554,9.0373 1.9798,3.4783 3.4801,7.2033 5.1088,10.859 0.53118,1.1924 1.0832,2.4011 1.2479,3.6961 0.0824,0.64746 0.0648,1.3121 -0.10105,1.9434 -0.16584,0.63127 -0.48421,1.2284 -0.95173,1.6838 -0.41574,0.405 -0.94134,0.69032 -1.4992,0.85064 -0.55786,0.16032 -1.1473,0.19807 -1.7251,0.14377 -1.1557,-0.10858 -2.2473,-0.57626 -3.2749,-1.1162 -3.5488,-1.8646 -6.5897,-4.6504 -10.289,-6.1942 -2.6351,-1.0996 -5.5107,-1.5242 -8.3648,-1.6066 -2.8541,-0.08236 -5.7058,0.1674 -8.5541,0.36745 -7.8169,0.54901 -15.66,0.72488 -23.463,1.4474 -0.5751,0.05339 -1.15,0.10948 -1.7245,0.16864 -0.15227,-1.3462 -0.19508,-2.7047 -0.12769,-4.0578 z"
         style="fill:#402311;stroke-width:50;stroke-linecap:round"
         id="path61" />
      <path
         d="m 98.757,94.06 2.9163,5.4399 c 0.53607,0.78478 1.4344,1.3109 2.3811,1.3946 0.94674,0.0837 1.9234,-0.27667 2.5888,-0.95541 0.6168,-0.62902 0.95322,-1.4925 1.0776,-2.3646 0.12435,-0.87215 0.0516,-1.76 -0.056,-2.6344 -0.66889,-5.433 -2.7072,-10.703 -5.9394,-15.121 -3.5895,-4.9064 -8.6437,-8.7269 -14.343,-10.842 -5.6994,-2.1152 -12.022,-2.517 -17.944,-1.1402 -5.9213,1.3767 -11.418,4.5267 -15.6,8.9393 -4.1817,4.4126 -7.032,10.071 -8.0887,16.058 l 17.016,-8.8036 22.623,2.3178 z"
         style="fill:#3c2110"
         id="path63" />
      <path
         d="m 98.343,113.53 c -0.63294,-3.2115 -1.7405,-6.329 -3.2755,-9.2199 -1.5497,-2.9185 -3.5432,-5.6333 -4.5867,-8.7686 -0.49922,-1.5 -0.77105,-3.0838 -0.70837,-4.6635 0.06265,-1.5797 0.46638,-3.1553 1.2512,-4.5276 0.78486,-1.3723 1.9588,-2.5339 3.3806,-3.225 1.4218,-0.69114 3.091,-0.89445 4.6167,-0.47993 1.3431,0.36491 2.534,1.1878 3.476,2.2123 1.6713,1.8176 2.5751,4.2307 2.9932,6.6642 0.50702,2.9511 0.34491,6.0272 -0.56957,8.8785 -1.0796,3.3659 -3.1483,6.3086 -4.8167,9.4248 -0.64563,1.2059 -1.2335,2.4427 -1.7609,3.7048 z"
         style="fill:#3c2110;stroke-width:50;stroke-linecap:round"
         id="path65" />
      <path
         d="m 52.182,90.228 c 1.9742,0.23588 3.9675,0.3112 5.9538,0.22498 3.8624,-0.16766 7.7048,-0.94438 11.565,-0.72935 5.7409,0.31981 11.335,2.941 15.199,7.1988 1.8866,2.0787 3.3832,4.5336 5.5622,6.3034 1.0895,0.88491 2.3529,1.5872 3.7278,1.8694 1.3749,0.2822 2.8679,0.11729 4.067,-0.61222 0.81395,-0.49519 1.4696,-1.2346 1.9075,-2.0807 0.43791,-0.84613 0.6619,-1.796 0.69736,-2.7481 0.0709,-1.9042 -0.60073,-3.773 -1.5551,-5.4223 -2.0095,-3.4724 -5.3405,-6.158 -9.1601,-7.3852"
         style="fill:#4d4d4d;fill-opacity:0.49992;stroke-width:50;stroke-linecap:round"
         id="path67" />
      <path
         d="m 52.182,90.228 c 1.9742,0.23588 3.9675,0.3112 5.9538,0.22498 3.8624,-0.16764 7.7048,-0.9444 11.565,-0.72935 5.741,0.3198 11.335,2.941 15.199,7.1988 1.8866,2.0787 3.3833,4.5336 5.5622,6.3034 1.0894,0.8849 2.3529,1.5872 3.7278,1.8694 1.3749,0.2822 2.8678,0.11729 4.0669,-0.61222 0.81396,-0.4952 1.4696,-1.2345 1.9075,-2.0807 0.4379,-0.8462 0.66194,-1.796 0.69736,-2.7481 0.0709,-1.9042 -0.60073,-3.773 -1.5551,-5.4223 -3.4427,-4.9905 -7.6602,-7.8937 -12.507,-9.9204 -6.7181,-2.8091 -18.629,-3.0162 -25.25,-0.01773 -3.4143,1.5461 -6.5991,3.5129 -9.3671,5.9342 z"
         style="fill:#502d16;stroke-width:50;stroke-linecap:round"
         id="path69" />
      <path
         d="m 63.158,111.64 a 2.369,4.8967 0 0 1 -2.369,4.8967 2.369,4.8967 0 0 1 -2.369,-4.8967 2.369,4.8967 0 0 1 2.369,-4.8967 2.369,4.8967 0 0 1 2.369,4.8967 z"
         style="fill:url(#radialGradient18478);stroke-width:50;stroke-linecap:round"
         id="path71" />
      <path
         d="m 86.101,111.35 a 2.369,4.8967 0 0 1 -2.369,4.8967 2.369,4.8967 0 0 1 -2.369,-4.8967 2.369,4.8967 0 0 1 2.369,-4.8967 2.369,4.8967 0 0 1 2.369,4.8967 z"
         style="fill:url(#radialGradient18476);stroke-width:50;stroke-linecap:round"
         id="path73" />
      <path
         d="m 70.613,117.94 c -0.77928,-0.0265 -1.5641,0.10184 -2.3012,0.38756 -1.0613,0.41145 -1.975,1.1256 -2.6453,2.0257 -0.66921,0.89871 -1.0802,1.9595 -1.2196,3.0551 -0.14327,1.1267 0.0026,2.2865 0.44492,3.346 0.44394,1.061 1.177,1.9941 2.1275,2.6639 1.3896,0.9792 3.1564,1.3233 4.8121,0.93793 1.6556,-0.38537 3.0887,-1.4746 3.9031,-2.9668 a 1.0583,1.0583 0 0 0 -0.4222,-1.4361 1.0583,1.0583 0 0 0 -1.4356,0.4222 c -0.5139,0.94165 -1.4801,1.6761 -2.5249,1.9193 -1.0448,0.2432 -2.2361,0.0109 -3.113,-0.60719 -0.60857,-0.42884 -1.1024,-1.0517 -1.3948,-1.7503 -0.29289,-0.70003 -0.39497,-1.497 -0.29766,-2.2624 0.09467,-0.7444 0.37947,-1.4682 0.81804,-2.0572 0.43752,-0.5875 1.0444,-1.0577 1.7126,-1.3167 0.91564,-0.35497 2.0179,-0.31721 2.9073,0.0992 a 1.0583,1.0583 0 0 0 1.4071,-0.50954 1.0583,1.0583 0 0 0 -0.50951,-1.4077 c -0.71591,-0.33518 -1.4898,-0.51657 -2.2691,-0.54311 z"
         style="color:#000000;fill:url(#radialGradient18517);stroke-width:0.26458;stroke-linecap:round"
         id="path75" />
      <path
         d="m 83.528,128.8 a 1.0583,1.0583 0 0 0 -1.2309,0.85162 c -0.18198,1.0004 -0.6137,1.964 -1.2392,2.7657 -0.80314,1.0295 -1.9502,1.8106 -3.2024,2.1807 a 1.0583,1.0583 0 0 0 -0.71467,1.3152 1.0583,1.0583 0 0 0 1.3146,0.71469 c 1.6852,-0.49813 3.1906,-1.5233 4.2716,-2.9089 0.83889,-1.0753 1.4085,-2.3469 1.6526,-3.6887 a 1.0583,1.0583 0 0 0 -0.85161,-1.2304 z"
         style="color:#000000;fill:url(#linearGradient18669);stroke-width:0.26458;stroke-linecap:round"
         id="path77" />
      <path
         d="m 51.563,90.934 c 4.0895,-4.5126 9.9325,-7.3932 16.002,-7.8892 6.0697,-0.496 12.303,1.3978 17.071,5.1866 4.6542,3.6984 7.8875,9.0507 12.886,12.269 0.74272,0.4782 1.523,0.90673 2.3575,1.1965 0.83449,0.28974 1.7271,0.43775 2.6059,0.34794 0.83602,-0.0854 1.6489,-0.38807 2.3373,-0.87013 0.68836,-0.48206 1.2507,-1.1425 1.6168,-1.8989 0.36613,-0.75642 0.53526,-1.6072 0.48631,-2.4461 -0.049,-0.83894 -0.3159,-1.6642 -0.76753,-2.3729 -1.7934,-6.1506 -5.7571,-11.645 -11.028,-15.287 -4.5865,-3.1688 -10.103,-4.9267 -15.672,-5.1868 -5.5687,-0.26011 -11.177,0.95692 -16.222,3.3282 -5.1439,2.4176 -9.7198,6.034 -13.261,10.48 z"
         style="fill:#402311"
         id="path79" />
      <path
         d="m 52.182,90.228 c 1.9742,0.23588 3.9675,0.3112 5.9538,0.22498 3.8624,-0.16764 7.7048,-0.9444 11.565,-0.72935 5.741,0.3198 11.335,2.941 15.199,7.1988 1.8866,2.0787 3.3833,4.5336 5.5622,6.3034 1.0894,0.8849 2.3529,1.5872 3.7278,1.8694 1.3749,0.2822 2.8678,0.11729 4.0669,-0.61222 0.81396,-0.4952 1.4696,-1.2345 1.9075,-2.0807 0.4379,-0.8462 0.66194,-1.796 0.69736,-2.7481 0.0709,-1.9042 -0.60073,-3.773 -1.5551,-5.4223 -3.4427,-4.9905 -7.6602,-7.8937 -12.507,-9.9204 -6.7181,-2.8091 -18.629,-3.0162 -25.25,-0.01773 -3.4143,1.5461 -6.5991,3.5129 -9.3671,5.9342 z"
         style="fill:#3c2110;stroke-width:50;stroke-linecap:round"
         id="path81" />
      <path
         d="m 46.178,113.53 c 0.63294,-3.2115 1.7405,-6.329 3.2755,-9.2199 1.5497,-2.9185 3.5432,-5.6333 4.5867,-8.7686 0.49922,-1.5 0.77105,-3.0838 0.70837,-4.6635 -0.06265,-1.5797 -0.46638,-3.1553 -1.2512,-4.5276 -0.78486,-1.3723 -1.9588,-2.5339 -3.3806,-3.225 -1.4218,-0.69114 -3.091,-0.89445 -4.6167,-0.47993 -1.3431,0.36491 -2.534,1.1878 -3.476,2.2123 -1.6713,1.8176 -2.5751,4.2307 -2.9932,6.6642 -0.50702,2.9511 -0.34491,6.0272 0.56957,8.8785 1.0796,3.3659 3.1483,6.3086 4.8167,9.4248 0.64564,1.2059 1.2335,2.4427 1.7609,3.7048 z"
         style="fill:#3c2110;stroke-width:50;stroke-linecap:round"
         id="path83" />
    </g>
  </g>
</svg>
